<svg width="141" height="97" viewBox="0 0 141 97" fill="none" xmlns="http://www.w3.org/2000/svg">
<path d="M140.984 94.5444L137.154 58.8992C136.987 57.4801 135.572 56.5618 134.239 57.0627L126.912 59.9009C106.344 27.5948 74.6178 12.9861 50.8025 6.47483C26.6542 -0.20343 6.4195 -0.119951 1.25674 0.0470051C0.507311 0.130483 -0.0755813 0.714831 0.00768893 1.54961L0.0909592 3.1357C0.0909592 3.80353 0.673851 4.3044 1.34001 4.3044C6.25296 4.22092 26.4044 4.13744 49.72 10.6487C72.5361 16.9931 103.013 30.934 122.831 61.5705L116.919 63.9079C115.587 64.4088 115.087 66.0783 115.92 67.247L137.071 96.1305C138.403 97.8835 141.234 96.7983 140.984 94.5444Z" fill="#A393EB"/>
</svg>
