<svg width="135" height="96" viewBox="0 0 135 96" fill="none" xmlns="http://www.w3.org/2000/svg">
<path d="M134.37 2.3515L131.311 36.5479C131.176 37.9095 129.833 38.8134 128.545 38.3569L121.462 35.7666C102.28 67.0566 72.0798 81.5953 49.3328 88.2435C26.2691 95.0573 6.84479 95.3289 1.88628 95.2587C1.16547 95.1918 0.595841 94.6424 0.661305 93.8417L0.713751 92.3216C0.702179 91.6822 1.25301 91.1924 1.89244 91.1809C6.60972 91.1755 25.9541 90.9053 48.2214 84.2658C70.0121 77.7949 99.0247 63.9172 117.517 34.2389L111.802 32.1036C110.514 31.6472 110.005 30.0573 110.785 28.9238L130.586 0.900828C131.835 -0.800837 134.571 0.189065 134.37 2.3515Z" fill="#A393EB"/>
</svg>
