<svg width="33" height="33" viewBox="0 0 33 33" fill="none" xmlns="http://www.w3.org/2000/svg">
<path d="M9.63339 0.836202C4.78113 0.836202 0.796753 4.78113 0.796753 9.67284V23.7957C0.796753 28.6479 4.74168 32.6323 9.63339 32.6323H23.7562C28.6085 32.6323 32.5929 28.6874 32.5929 23.7957V9.63339C32.5929 4.78113 28.6479 0.796753 23.7562 0.796753H9.63339V0.836202ZM9.63339 4.34719H23.7562C26.6755 4.34719 29.0424 6.71414 29.0424 9.63339V23.7562C29.0424 26.6755 26.6755 29.0424 23.7562 29.0424H9.63339C6.71414 29.0424 4.34719 26.6755 4.34719 23.7562V9.63339C4.34719 6.71414 6.71414 4.34719 9.63339 4.34719ZM25.5314 6.12241C24.5452 6.12241 23.7562 6.91139 23.7562 7.89762C23.7562 8.88385 24.5452 9.67284 25.5314 9.67284C26.5177 9.67284 27.3067 8.88385 27.3067 7.89762C27.3067 6.91139 26.5177 6.12241 25.5314 6.12241ZM16.6948 7.89762C11.8425 7.89762 7.85817 11.8426 7.85817 16.7343C7.85817 21.626 11.8031 25.5709 16.6948 25.5709C21.5865 25.5709 25.5314 21.626 25.5314 16.7343C25.5314 11.8426 21.5865 7.89762 16.6948 7.89762ZM16.6948 11.4086C19.6141 11.4086 21.981 13.7756 21.981 16.6948C21.981 19.6141 19.6141 21.981 16.6948 21.981C13.7756 21.981 11.4086 19.6141 11.4086 16.6948C11.4086 13.7756 13.7756 11.4086 16.6948 11.4086Z" fill="white"/>
</svg>
