<svg width="118" height="35" viewBox="0 0 118 35" fill="none" xmlns="http://www.w3.org/2000/svg">
<path d="M11.1061 19.5929L11.0663 13.0382L16 5.38422L12.4987 4.04071L9.39522 9.69975L6.25199 4L1 5.79135L6.33156 12.916L6.41114 20L11.1061 19.5929Z" fill="white"/>
<path d="M6.32701 21C6.16091 21 5.99483 20.9155 5.87026 20.831C5.74569 20.7042 5.66265 20.5352 5.66265 20.324L5.5796 13.2255L0.14014 6.04253C0.015572 5.87352 -0.0259518 5.62 0.0155708 5.40874C0.098616 5.19747 0.223184 5.02846 0.430797 4.94395L5.91178 3.04258C6.24396 2.91582 6.57614 3.08483 6.74223 3.3806L9.39968 8.23967L12.0571 3.42286C12.2232 3.12709 12.5969 3.00033 12.8876 3.12709L16.5416 4.52143C16.7492 4.60593 16.8737 4.77494 16.9568 4.94395C17.0398 5.11297 16.9983 5.36648 16.8738 5.53549L11.8495 13.31L11.891 19.8592C11.891 20.2394 11.6004 20.5352 11.2682 20.5775L6.36853 21C6.36853 21 6.36853 21 6.32701 21ZM1.80104 5.91577L6.78376 12.5072C6.8668 12.634 6.90833 12.7607 6.90833 12.9297L6.99137 19.5212L10.5208 19.2254L10.4793 13.0987C10.4793 12.972 10.5208 12.8452 10.6038 12.7185L15.2959 5.49324L13.0121 4.60593L10.064 9.97203C9.93947 10.1833 9.73186 10.3101 9.48273 10.3101C9.23359 10.3101 9.02598 10.1833 8.90141 9.97203L5.91178 4.56368L1.80104 5.91577Z" fill="#4D3627"/>
<path d="M27.9288 3.62208L28.0883 1L19.9516 1.12102L20.0313 3.9448L27.9288 3.62208ZM24.0199 15.966C22.0655 15.966 21.1481 14.5138 21.1481 12.6582C21.1481 10.8832 22.3447 9.26964 24.0598 9.26964C25.6553 9.26964 26.6923 10.8025 26.6923 12.6178C26.7322 14.3928 25.735 15.966 24.0199 15.966ZM23.9402 20C27.9288 20 31 16.4098 31 12.2951C31 8.01911 28.0484 4.5499 23.9801 4.5499C20.0313 4.5499 17 8.18047 17 12.3355C17.0399 16.4904 19.9915 20 23.9402 20Z" fill="white"/>
<path d="M23.8961 21C19.5325 21 16 17.1667 16 12.4167C16 8.79167 17.9948 5.70833 20.8623 4.375L19.8649 4.41667C19.6987 4.41667 19.4909 4.375 19.3662 4.25C19.2416 4.125 19.1584 3.95833 19.1584 3.75L19.0753 0.833333C19.0753 0.666667 19.1584 0.458333 19.2831 0.333333C19.4078 0.208333 19.574 0.125 19.7818 0.125L28.2597 0C28.4675 0 28.6338 0.0833333 28.7584 0.208333C28.8831 0.333333 28.9662 0.541665 28.9662 0.708332L28.8 3.41667C28.7584 3.75 28.5091 4.04167 28.1351 4.04167L26.639 4.08333C29.7974 5.25 32 8.45833 32 12.3333C31.9584 17.1667 28.3429 21 23.8961 21ZM23.9377 5.08333C20.3221 5.08333 17.3714 8.375 17.3714 12.4583C17.3714 16.4167 20.2805 19.6667 23.8961 19.6667C27.5948 19.6667 30.587 16.4167 30.587 12.4167C30.5455 8.20833 27.7195 5.08333 23.9377 5.08333ZM20.4468 1.5L20.4883 3.04167L27.4286 2.75L27.5117 1.375L20.4468 1.5ZM23.9792 16.8333C21.6935 16.8333 20.2805 15.25 20.2805 12.75C20.2805 10.4167 21.9429 8.54167 24.0208 8.54167C25.974 8.54167 27.4701 10.3333 27.4701 12.6667C27.4701 15.0833 26.0156 16.8333 23.9792 16.8333ZM24.0623 9.95833C22.5662 9.95833 21.6935 11.375 21.6935 12.75C21.6935 13.75 21.9844 15.4583 23.9792 15.4583C25.4338 15.4583 26.0987 14.0417 26.0987 12.6667C26.0987 11.375 25.3922 9.95833 24.0623 9.95833Z" fill="#4D3627"/>
<path d="M46 18.005L40.0721 12.3102L44.6546 6.27791L41.2072 4L36.6667 9.99007L37.045 4.63275L32 4.92804L32.6306 20.536L36.5826 19.9454L36.6667 14.5881L42.5946 21L46 18.005Z" fill="white"/>
<path d="M42.6839 22C42.5095 22 42.2916 21.913 42.1608 21.7825L37.2343 16.4754L37.1907 20.2165C37.1907 20.5645 36.9292 20.869 36.5804 20.9125L32.4823 21.5215C32.2643 21.565 32.0899 21.478 31.9155 21.3475C31.7411 21.217 31.654 21.043 31.654 20.8255L31 4.73034C31 4.33883 31.3052 3.99083 31.6975 3.99083L36.9292 3.68633C37.1471 3.68633 37.3215 3.72983 37.4959 3.90383C37.6267 4.03433 37.7139 4.25183 37.7139 4.46933L37.4959 7.55786L40.7221 3.29482C40.9401 2.99032 41.376 2.90332 41.6812 3.12082L45.2997 5.51334C45.4741 5.64384 45.5613 5.81785 45.6049 5.99185C45.6485 6.16585 45.6049 6.38335 45.4741 6.55735L41.1144 12.2559L46.782 17.65C46.9128 17.7805 47 17.998 47 18.172C47 18.3895 46.9128 18.5635 46.7384 18.694L43.2071 21.826C43.0327 21.9565 42.8583 22 42.6839 22ZM36.5368 13.9524C36.7548 13.9524 36.9292 14.0394 37.0599 14.1699L42.7275 20.26L45.1253 18.1285L39.545 12.8214C39.2834 12.5604 39.2398 12.1689 39.4578 11.8644L43.7302 6.25285L41.3324 4.68684L37.0163 10.3419C36.842 10.6029 36.4932 10.6899 36.188 10.5594C35.8828 10.4289 35.7084 10.1679 35.7084 9.81989L36.0572 5.12184L32.3515 5.33934L32.9619 19.912L35.6649 19.5205L35.752 14.6049C35.752 14.3004 35.9264 14.0394 36.2316 13.9524C36.3624 13.9524 36.4496 13.9524 36.5368 13.9524Z" fill="#4D3627"/>
<path d="M53.5641 15.8225C51.4701 15.8225 50.4872 14.3185 50.4872 12.3969C50.4872 10.5587 51.7692 8.88773 53.6068 8.88773C55.3162 8.88773 56.4274 10.4752 56.4274 12.3551C56.4274 14.1932 55.4017 15.8225 53.5641 15.8225ZM53.4359 20C57.7094 20 61 16.282 61 12.0209C61 7.59269 57.8376 4 53.4786 4C49.2479 4 46 7.75979 46 12.0627C46.0427 16.3655 49.2479 20 53.4359 20Z" fill="white"/>
<path d="M53.4411 21C49.3289 21 46 17.0192 46 12.0865C46 7.06731 49.3681 3 53.4802 3C57.7099 3 60.9997 6.98077 60.9997 12.0433C61.0388 17.0192 57.6316 21 53.4411 21ZM53.5194 4.47115C50.1122 4.47115 47.3316 7.88942 47.3316 12.1298C47.3316 16.2404 50.073 19.6154 53.4802 19.6154C56.9658 19.6154 59.7856 16.2404 59.7856 12.0865C59.7464 7.71634 57.0441 4.47115 53.5194 4.47115ZM53.5586 16.6731C51.4046 16.6731 50.073 15.0288 50.073 12.4327C50.073 10.0096 51.6396 8.0625 53.5977 8.0625C55.4384 8.0625 56.8483 9.92308 56.8483 12.3462C56.8483 14.8558 55.4384 16.6731 53.5586 16.6731ZM53.5977 9.53365C52.1879 9.53365 51.3654 11.0048 51.3654 12.4327C51.3654 13.4712 51.6396 15.2452 53.5194 15.2452C54.8901 15.2452 55.5168 13.774 55.5168 12.3462C55.5559 11.0048 54.851 9.53365 53.5977 9.53365Z" fill="#4D3627"/>
<path d="M66.123 13.9674C66.6278 13.8043 67.301 13.6413 68.0162 13.6413C69.1521 13.6413 70.2039 14.0082 70.2039 15.1087C70.2039 16.3723 68.6893 16.6984 67.4272 16.6984C66.9223 16.6984 66.5016 16.6576 66.2071 16.5761L66.123 13.9674ZM65.9126 7.93478C66.2913 7.8125 66.6699 7.73098 67.1327 7.73098C67.9741 7.73098 68.7735 8.05707 68.7735 8.87228C68.7735 9.8913 67.2589 10.5435 66.4175 10.5435C66.2492 10.5435 66.123 10.5435 65.9968 10.5027L65.9126 7.93478ZM62.3787 19.5924C63.3463 19.837 65.1974 20 66.4595 20C70.4563 20 75 18.6141 75 15.0272C75 13.1929 72.8544 12.0516 70.4563 11.6848C72.2233 10.7473 73.5275 9.64674 73.5275 8.30163C73.5275 5.81522 70.3301 5 67.1748 5C65.4498 5 63.178 5.24457 62 5.52989L62.3787 19.5924Z" fill="white"/>
<path d="M66.379 21C64.9796 21 63.0117 20.8725 61.9621 20.575C61.656 20.49 61.4373 20.235 61.4373 19.9375L61 5.275C61 4.935 61.2187 4.68 61.5248 4.595C62.793 4.255 65.1983 4 67.1225 4C71.8018 4 74.4694 5.53 74.4694 8.165C74.4694 9.3125 73.7697 10.375 72.3703 11.395C74.6006 12.1175 76 13.52 76 15.1775C75.9563 19.1725 71.1458 21 66.379 21ZM62.8367 19.3C63.8426 19.47 65.3294 19.555 66.379 19.555C69.3965 19.555 74.5131 18.62 74.5131 15.05C74.5131 13.52 72.4577 12.5425 70.4023 12.245C70.0962 12.2025 69.8338 11.99 69.7901 11.6925C69.7464 11.395 69.8776 11.0975 70.1399 10.97C72.0204 9.9925 72.9825 9.015 72.9825 8.08C72.9825 5.53 68.4781 5.3175 67.0787 5.3175C65.5481 5.3175 63.6676 5.4875 62.4431 5.7425L62.8367 19.3ZM67.3848 17.6425C66.9475 17.6425 66.4665 17.6 65.9854 17.515C65.6356 17.4725 65.4169 17.175 65.4169 16.835L65.3732 14.0725C65.3732 13.775 65.5481 13.52 65.8542 13.3925C66.5102 13.1375 67.2974 13.01 68.0408 13.01C69.9213 13.01 71.0146 13.86 71.0146 15.2625C70.9708 16.75 69.6152 17.6425 67.3848 17.6425ZM66.7726 16.1975C66.9475 16.1975 67.1662 16.24 67.3411 16.24C67.9971 16.24 69.484 16.155 69.484 15.2625C69.484 15.05 69.484 14.455 67.9534 14.455C67.5598 14.455 67.1225 14.4975 66.7289 14.5825L66.7726 16.1975ZM66.3353 11.14C66.1166 11.14 65.9854 11.0975 65.8542 11.0975H65.8105C65.4606 11.055 65.1983 10.7575 65.1983 10.4175L65.1108 7.74C65.1108 7.4425 65.2857 7.1875 65.5918 7.06C66.0729 6.89 66.5977 6.805 67.1225 6.805C68.6093 6.805 69.5277 7.57 69.5277 8.7175C69.5277 10.29 67.4723 11.14 66.3353 11.14ZM66.5539 8.25L66.5977 9.695C67.2099 9.5675 68.0408 9.1425 68.0408 8.675C68.0408 8.2075 67.3411 8.165 67.0787 8.165C66.9038 8.2075 66.7289 8.2075 66.5539 8.25Z" fill="#4D3627"/>
<path d="M83.6023 13.9537L80.9654 14.1183L82.1326 9.30591L83.6023 13.9537ZM90 18.5193L84.3804 4.16453L79.9712 4L75 19.1362L79.6686 20L80.3602 17.0386L84.4669 16.7506L85.4179 19.7532L90 18.5193Z" fill="white"/>
<path d="M79.5725 21C79.5277 21 79.4829 21 79.4381 21L74.5999 20.1043C74.376 20.0616 74.1968 19.9336 74.1072 19.763C74.0176 19.5924 73.9728 19.3791 74.0176 19.2085L79.1693 3.51185C79.2589 3.21327 79.5725 3 79.8861 3L84.4555 3.12796C84.7691 3.12796 85.0378 3.29858 85.1274 3.59716L90.9512 18.4834C91.0408 18.654 90.996 18.8673 90.9064 19.0379C90.8168 19.2085 90.6376 19.3365 90.4584 19.3791L85.7546 20.6588C85.3514 20.7867 84.9482 20.5735 84.8587 20.1896L84.0523 17.5877L80.9164 17.8009L80.3341 20.3602C80.1997 20.7867 79.8861 21 79.5725 21ZM75.6751 18.8673L78.9901 19.4645L79.5277 17.0332C79.6173 16.7346 79.8861 16.5213 80.1997 16.4787L84.4555 16.1801C84.8139 16.1374 85.1274 16.3507 85.217 16.6919L85.9786 19.1659L89.204 18.2701L83.8283 4.53555L80.2893 4.40758L75.6751 18.8673ZM80.8716 14.9005C80.6477 14.9005 80.4685 14.8152 80.2893 14.6445C80.1549 14.4739 80.0653 14.2607 80.1549 14.0474L81.3644 9.05687C81.454 8.75829 81.7228 8.50237 82.0812 8.50237C82.3948 8.50237 82.7084 8.71564 82.7979 9.01422L84.3211 13.8341C84.3659 14.0474 84.3659 14.2607 84.2315 14.4313C84.0971 14.6019 83.8731 14.7299 83.6491 14.7299L80.9164 14.9005H80.8716ZM82.1708 11.9573L81.8124 13.4502L82.6188 13.4076L82.1708 11.9573Z" fill="#4D3627"/>
<path d="M94.4531 13.9674C94.8803 13.8043 95.4498 13.6413 96.055 13.6413C97.0162 13.6413 97.9061 14.0082 97.9061 15.1087C97.9061 16.3723 96.6246 16.6984 95.5566 16.6984C95.1294 16.6984 94.7735 16.6576 94.5243 16.5761L94.4531 13.9674ZM94.3107 7.93478C94.6311 7.8125 94.9515 7.73098 95.343 7.73098C96.055 7.73098 96.7314 8.05707 96.7314 8.87228C96.7314 9.8913 95.4498 10.5435 94.7379 10.5435C94.5955 10.5435 94.4887 10.5435 94.3819 10.5027L94.3107 7.93478ZM91.3204 19.5924C92.1392 19.837 93.7055 20 94.7735 20C98.1553 20 102 18.6141 102 15.0272C102 13.1929 100.184 12.0516 98.1553 11.6848C99.6505 10.7473 100.754 9.64674 100.754 8.30163C100.754 5.81522 98.0485 5 95.3786 5C93.9191 5 91.9968 5.24457 91 5.52989L91.3204 19.5924Z" fill="white"/>
<path d="M94.6618 21C93.449 21 91.7434 20.8725 90.8338 20.575C90.5685 20.49 90.379 20.235 90.379 19.9375L90 5.275C90 4.935 90.1895 4.68 90.4548 4.595C91.5539 4.255 93.6385 4 95.3061 4C99.3615 4 101.673 5.53 101.673 8.165C101.673 9.3125 101.067 10.375 99.8542 11.395C101.787 12.1175 103 13.52 103 15.1775C102.962 19.1725 98.793 21 94.6618 21ZM91.5918 19.3C92.4636 19.47 93.7522 19.555 94.6618 19.555C97.277 19.555 101.711 18.62 101.711 15.05C101.711 13.52 99.93 12.5425 98.1487 12.245C97.8834 12.2025 97.656 11.99 97.6181 11.6925C97.5802 11.395 97.6939 11.0975 97.9213 10.97C99.551 9.9925 100.385 9.015 100.385 8.08C100.385 5.53 96.4811 5.3175 95.2682 5.3175C93.9417 5.3175 92.312 5.4875 91.2507 5.7425L91.5918 19.3ZM95.4956 17.6425C95.1166 17.6425 94.6997 17.6 94.2828 17.515C93.9796 17.4725 93.7901 17.175 93.7901 16.835L93.7522 14.0725C93.7522 13.775 93.9038 13.52 94.1691 13.3925C94.7376 13.1375 95.4198 13.01 96.0641 13.01C97.6939 13.01 98.6414 13.86 98.6414 15.2625C98.6035 16.75 97.4665 17.6425 95.4956 17.6425ZM95.0029 16.1975C95.1545 16.1975 95.344 16.24 95.4956 16.24C96.0641 16.24 97.3528 16.155 97.3528 15.2625C97.3528 15.05 97.3528 14.455 96.0262 14.455C95.6851 14.455 95.3061 14.4975 94.965 14.5825L95.0029 16.1975ZM94.6239 11.14C94.4344 11.14 94.3207 11.0975 94.207 11.0975H94.1691C93.8659 11.055 93.6385 10.7575 93.6385 10.4175L93.5627 7.74C93.5627 7.4425 93.7143 7.1875 93.9796 7.06C94.3965 6.89 94.8513 6.805 95.3061 6.805C96.5947 6.805 97.3907 7.57 97.3907 8.7175C97.3528 10.29 95.5714 11.14 94.6239 11.14ZM94.8134 8.25L94.8513 9.695C95.3819 9.5675 96.102 9.1425 96.102 8.675C96.102 8.2075 95.4956 8.165 95.2682 8.165C95.1166 8.2075 94.965 8.2075 94.8134 8.25Z" fill="#4D3627"/>
<path d="M113.466 20L113.381 13.7355L118 5.60847L113.975 4.12698L111.051 9.84127L107.153 4L103 6.83598L108.339 13.7778L108.169 19.9153L113.466 20Z" fill="white"/>
<path d="M112.917 21L107.714 20.9124C107.549 20.9124 107.342 20.8248 107.219 20.6934C107.095 20.562 107.012 20.3431 107.012 20.1679L107.219 14.0803L102.139 7.11679C102.015 6.94161 101.974 6.76642 102.015 6.54745C102.057 6.37226 102.139 6.15328 102.305 6.06569L106.351 3.13139C106.517 3.0438 106.682 3 106.847 3C107.012 3.0438 107.177 3.13139 107.301 3.30657L110.481 8.34307L112.793 3.52555C112.958 3.21898 113.33 3.0438 113.619 3.17518L117.542 4.70803C117.749 4.79562 117.872 4.92701 117.955 5.14599C118.038 5.36496 117.996 5.58394 117.914 5.75912L113.495 14.0365L113.578 20.2993C113.578 20.4745 113.495 20.6934 113.371 20.8248C113.247 20.9124 113.082 21 112.917 21ZM108.457 19.4672L112.215 19.5547L112.133 13.8175C112.133 13.6861 112.174 13.5547 112.215 13.4672L116.345 5.75912L113.743 4.75182L111.183 10.0949C111.059 10.3139 110.852 10.4891 110.605 10.4891C110.357 10.4891 110.15 10.4015 109.985 10.1825L106.558 4.75182L103.667 6.81022L108.457 13.3796C108.54 13.5109 108.623 13.6861 108.581 13.8613L108.457 19.4672Z" fill="#4D3627"/>
<path d="M28.4532 28C28.5036 28.1911 28.6043 28.2675 28.705 28.3439C28.8058 28.4204 29.0072 28.4204 29.4101 28.4204C30.3165 28.4204 32.6835 28.3057 33.4389 28.2675C33.6403 28.2675 33.741 28.2293 33.8417 28.1529C33.9424 28.0764 34.0432 28 34.1439 28C34.3453 28 35 28.3822 35 28.4968C35 28.6115 34.8489 28.6497 34.6978 28.7643C34.5468 28.8408 34.5468 28.9936 34.5468 29.2229C34.4964 29.8726 34.295 32.5478 34.295 33.3121C34.295 33.6943 34.1942 34 33.9425 34C33.741 34 33.6403 33.6943 33.5899 33.465C33.4388 33.465 33.2878 33.4268 32.9353 33.4268C32.1295 33.4268 29.9137 33.5032 29.4604 33.6561C29.259 33.7325 29.1583 33.8089 29.0072 33.8089C28.5036 33.8089 28 33.465 28 33.1975C28 33.0446 28.1007 32.8535 28.2014 32.8535C28.2518 33.2357 28.8561 33.2357 29.259 33.2357C29.7626 33.2357 32.1295 33.1592 32.6835 33.121C32.9856 33.0828 33.1871 33.0446 33.3885 33.0446C33.4388 33.0446 33.5899 33.0446 33.6907 33.0828C33.741 32.6624 33.7914 31.7834 33.8417 30.9809C33.7914 30.9809 33.4388 30.9809 33.3885 30.9809C33.2374 30.9809 30.5683 31.0191 29.9137 31.2102C29.7626 31.2484 29.7626 31.2866 29.6619 31.2866C29.3094 31.2866 28.7554 30.9045 28.7554 30.7134C28.7554 30.5987 28.7554 30.5223 28.8561 30.4076H28.9065C29.0576 30.7516 29.4604 30.7898 29.964 30.7898C30.4676 30.7898 32.2806 30.7134 32.7842 30.6369C33.1367 30.5987 33.2374 30.5605 33.3885 30.5605C33.5899 30.5605 33.741 30.5605 33.8921 30.5987C33.9424 30.0255 33.9425 29.2611 33.9425 28.7643C33.9425 28.6115 33.9424 28.6115 33.7914 28.6115C33.3381 28.6115 31.0719 28.7261 30.1151 28.8408C29.9137 28.8408 29.7122 28.879 29.5611 28.9172C29.4101 28.9554 29.3094 29.0318 29.1583 29.0318C28.9065 29.0318 28.3022 28.6879 28.3022 28.3822C28.3022 28.2293 28.3525 28.0764 28.4532 28Z" fill="white"/>
<path d="M43.6522 30.4194C44.3859 30.4194 44.7772 30.3548 44.9239 30.3548C45.3641 30.3548 46 30.4516 46 30.6129C46 30.7419 45.8044 30.7742 45.462 30.7742C45.2663 30.7742 45.0707 30.7742 44.875 30.7742C44.4348 30.7742 43.6522 30.7742 43.0652 30.7742C40.7663 30.7742 38.9076 30.7742 38.4674 30.9032C38.3207 30.9355 38.2228 31 38.0272 31C37.6848 31 37 30.6129 37 30.3226C37 30.1613 37.0489 30.0645 37.1957 30H37.2446C37.3424 30.2903 37.6359 30.4194 38.8098 30.4194H43.6522Z" fill="white"/>
<path d="M47.3245 28.0458C47.5099 28.4122 47.9272 28.6412 48.4371 28.6412C49.0861 28.6412 51.2186 28.5496 52.5166 28.458C52.9801 28.4122 52.9801 28.1832 53.2119 28.1832C53.3974 28.1832 54 28.6412 54 28.7786C54 28.916 53.8609 28.9618 53.7219 29.0076C53.5828 29.0534 53.5828 29.2366 53.5364 29.5114C53.4437 30.5649 53.3046 32.2595 53.1656 32.9466C53.4901 33.084 53.7682 33.2214 53.7682 33.4962C53.7682 33.6336 53.5364 33.6336 53.3974 33.6336C53.1192 33.6336 52.9801 33.4962 52.4702 33.4962C52.3311 33.4962 52.2384 33.4962 52.0993 33.4962C50.755 33.4962 48.6689 33.7252 48.2517 33.8626C48.1589 33.9084 48.0662 34 47.8808 34C47.4636 34 47 33.4504 47 33.084C47 32.9008 47.0927 32.7634 47.1854 32.626H47.2781C47.4172 33.084 47.6954 33.2672 48.2517 33.2672C48.4834 33.2672 51.6821 33.084 52.3311 33.0382C52.4702 33.0382 52.5629 32.9924 52.6556 32.9466C52.7947 31.8473 52.8874 30.1069 52.9338 28.9618C52.9338 28.8702 52.8874 28.8244 52.7484 28.8244C52.702 28.8244 48.9934 29.0076 48.3907 29.2366C48.3444 29.2824 48.2053 29.3282 48.1126 29.3282C47.7881 29.3282 47.2318 28.7328 47.2318 28.4122C47.2318 28.229 47.2782 28.0916 47.3709 28H47.3245V28.0458Z" fill="white"/>
<path d="M55.1925 29.9404C55.1925 30.1391 55.3369 30.3377 55.5294 30.3377C55.6257 30.3377 55.9626 30.1391 56.1551 29.9801C56.5882 29.6225 57.1658 29.1854 57.5989 28.8676C57.984 28.5894 58.3208 28.4305 58.754 28.4305C59.3315 28.4305 59.7647 28.7086 60.631 29.3841C61.4973 30.0596 63.3743 31.6093 63.8556 32.2848C63.9037 32.404 64 32.5629 64 32.6821C64 32.8411 63.8556 33 63.615 33C63.4225 33 63.2299 32.6424 62.8449 32.2053C62.2192 31.4901 61.1123 30.3377 60.2941 29.702C59.6684 29.1854 59.1872 28.8278 58.754 28.8278C58.4652 28.8278 58.1283 28.9868 57.7914 29.3046C57.4064 29.6225 56.8289 30.1391 56.3476 30.6556C56.1069 30.9338 56.0588 31.1722 55.8182 31.1722C55.385 31.1722 55 30.5762 55 30.3377C55 30.1788 55.0963 30.0596 55.1925 29.9404ZM60.8235 27.6755C62.123 28.0728 62.3155 28.5099 62.3155 28.7483C62.3155 28.8676 62.1711 28.9868 62.0749 28.9868C61.8824 28.9868 61.8342 28.9073 61.738 28.7881C61.5936 28.5099 61.2085 28.1126 60.6791 27.8742L60.8235 27.6755ZM61.9305 27C63.3743 27.4371 63.4225 27.9536 63.4225 28.0331C63.4225 28.1523 63.3262 28.3113 63.1818 28.3113C62.9893 28.3113 62.9412 28.2318 62.8449 28.0728C62.7005 27.7947 62.3155 27.3974 61.7861 27.1589L61.9305 27Z" fill="white"/>
<path d="M72.491 27.1798C72.5749 27.0899 72.7006 27 72.9102 27C73.3713 27 74 27.4045 74 27.764C74 27.8989 73.9162 27.8989 73.7904 27.9438C73.6647 27.9888 73.5808 28.0337 73.497 28.1236C72.9102 28.7528 71.8623 29.6067 71.3174 30.0562C71.485 30.1461 71.6527 30.3708 71.6527 30.5056C71.6527 30.6404 71.6108 30.6854 71.6108 30.8202C71.5689 31.0449 71.5689 31.6292 71.5689 32.0337C71.5689 32.618 71.5689 33.2921 71.5689 33.6067C71.5689 33.9663 71.6108 34.236 71.6108 34.4157C71.6108 34.8652 71.485 35 71.2754 35C71.1078 35 70.9401 34.5955 70.8563 34.1011C70.982 33.8764 71.024 33.6966 71.024 33.382C71.0659 33.0225 71.0659 32.2135 71.0659 31.5393C71.0659 30.9101 71.0659 30.4607 70.9401 30.3258C70.1437 30.9101 68.8024 31.809 67.0838 32.573L67 32.3933C70.5629 30.4607 73.0359 28.0337 73.0359 27.6292C72.994 27.4045 72.7425 27.2247 72.491 27.1798Z" fill="white"/>
<path d="M81.9231 29.0349C81.9744 28.9535 82.1282 28.9128 82.2821 28.9128C82.7436 28.9128 83.3077 29.3605 83.3077 29.564C83.3077 29.7267 83.1026 29.6454 82.7436 29.7674C81.4103 30.3779 79.7692 30.9477 78.2821 31.2733C78.2308 33.3895 78.5385 33.5523 80.3333 33.5523C80.8462 33.5523 82.9487 33.5523 83.3077 33.2674C83.7692 33.3081 84.2821 33.3895 84.2821 33.6337C84.2821 33.8372 83.6154 33.9186 83.2564 33.9186C82.3846 33.9593 81.3077 34 80.5385 34C78.3846 34 77.7179 33.7965 77.7179 31.5581C77.7179 31.1512 77.7179 30.6221 77.7179 30.1744C77.7179 29.6454 77.7692 29.1977 77.7692 28.8721C77.7692 28.4651 77.7179 28.1802 77 28.1802C77 28.0174 77.359 27.8953 77.6154 27.8953C78.0256 27.8953 78.6923 28.0988 78.6923 28.4244C78.6923 28.5465 78.641 28.5465 78.5897 28.6279C78.4359 28.8314 78.3846 30.6628 78.3333 31.0291C80.6923 30.3779 82.2821 29.564 82.2821 29.2791C82.2821 29.157 82.1282 29.0349 81.9231 29.0349ZM82.0769 27.2849C82.8462 27.5291 83.5641 28.0174 83.5641 28.4244C83.5641 28.6279 83.4103 28.7093 83.2564 28.7093C83.1026 28.7093 83.0513 28.6686 82.9487 28.4651C82.8462 28.1802 82.4872 27.7326 81.9231 27.407L82.0769 27.2849ZM83.5128 27C84.3333 27.2849 85 27.814 85 28.1802C85 28.3837 84.8462 28.4651 84.6923 28.4651C84.5385 28.4651 84.4872 28.4244 84.3846 28.2209C84.2821 27.936 83.9231 27.4477 83.359 27.1628L83.5128 27Z" fill="white"/>
<path d="M91.913 30.4194C92.5652 30.4194 92.9131 30.3548 93.0435 30.3548C93.4348 30.3548 94 30.4516 94 30.6129C94 30.7419 93.8261 30.7742 93.5217 30.7742C93.3478 30.7742 93.1739 30.7742 93 30.7742C92.6087 30.7742 91.913 30.7742 91.3913 30.7742C89.3478 30.7742 87.6957 30.7742 87.3043 30.9032C87.1739 30.9355 87.087 31 86.913 31C86.6087 31 86 30.6129 86 30.3226C86 30.1613 86.0435 30.0645 86.1739 30H86.2174C86.3043 30.2903 86.5652 30.4194 87.6087 30.4194H91.913Z" fill="white"/>
</svg>
