<svg width="206" height="39" viewBox="0 0 206 39" fill="none" xmlns="http://www.w3.org/2000/svg">
<path d="M13.003 36.7059C12.631 36.7059 12.259 36.5819 12.0109 36.3339C11.7009 36.0859 11.5149 35.6518 11.5149 35.2798C11.3909 31.4356 11.3289 27.5294 11.2049 23.6852C8.10475 19.779 4.94259 15.8728 1.84243 12.0286C1.53241 11.6566 1.40841 11.1606 1.59441 10.7266C1.71842 10.2925 2.09044 9.92052 2.52446 9.73451C5.62462 8.61846 8.72478 7.5644 11.8249 6.44835C12.0109 6.38634 12.135 6.38634 12.321 6.38634C12.879 6.38634 13.375 6.63436 13.623 7.13038C15.1111 9.61051 16.5372 12.0906 17.9632 14.5088C19.3273 12.0286 20.7534 9.54851 22.1175 7.06838C22.3655 6.57235 22.9235 6.32434 23.4195 6.32434C23.6055 6.32434 23.7915 6.32434 23.9776 6.38634C26.0857 7.13038 28.1318 7.87442 30.2399 8.61846C30.6739 8.80447 30.9839 9.11448 31.1699 9.54851C31.2939 9.98253 31.2319 10.4165 30.9839 10.8506C28.1938 15.1288 25.3416 19.407 22.5515 23.6852C22.6135 27.2814 22.6755 30.8156 22.7375 34.4118C22.7375 35.2178 22.1795 35.8378 21.3734 35.8998C18.6453 36.1479 15.8551 36.4579 13.127 36.7059C13.127 36.7059 13.065 36.7059 13.003 36.7059Z" fill="white"/>
<path d="M12.3209 7.87445C14.243 11.0986 16.1651 14.3228 18.0252 17.5469C19.8233 14.3228 21.6214 11.0366 23.4815 7.81245C25.5896 8.55649 27.6357 9.30052 29.7438 10.0446C26.8297 14.4468 23.9775 18.849 21.1254 23.2512C21.1874 26.9714 21.2494 30.6916 21.3734 34.4118C18.5832 34.6598 15.8551 34.9698 13.065 35.2178C12.9409 31.1876 12.8789 27.1574 12.7549 23.1272C9.53077 19.097 6.30661 15.1288 3.08244 11.0986C6.1206 10.0446 9.22075 8.9285 12.3209 7.87445ZM12.2589 4.8983C11.9489 4.8983 11.5769 4.9603 11.2669 5.08431C8.1667 6.13836 5.06654 7.25442 1.96639 8.37048C1.03634 8.68049 0.354304 9.42453 0.106291 10.3546C-0.141722 11.2846 0.0442879 12.2767 0.66432 13.0207C3.70247 16.6789 6.67863 20.4611 9.71678 24.1813C9.84079 27.9015 9.90279 31.5597 10.0268 35.2798C10.0268 36.0859 10.3988 36.8919 11.0188 37.45C11.5769 37.946 12.3209 38.194 13.065 38.194C13.127 38.194 13.251 38.194 13.313 38.194C16.0411 37.946 18.8312 37.636 21.5594 37.388C23.1095 37.2639 24.2875 35.8999 24.2875 34.3498C24.2255 30.9396 24.1635 27.5295 24.1015 24.0573C26.8297 19.9031 29.5578 15.7489 32.2859 11.5946C32.782 10.8506 32.906 9.92055 32.5959 9.05251C32.2859 8.18447 31.6659 7.50243 30.7979 7.19242C28.6897 6.44838 26.6436 5.70434 24.5355 4.9603C24.1635 4.8363 23.7915 4.77429 23.4815 4.77429C22.4274 4.77429 21.3734 5.33232 20.8773 6.32437C19.8233 8.06046 18.8932 9.73454 17.9632 11.4706C16.9711 9.73454 15.9791 8.06046 14.925 6.38637C14.367 5.39432 13.313 4.8363 12.2589 4.8983Z" fill="#A393EB"/>
<path d="M41.8964 37.2639C34.394 37.2639 28.2557 30.6916 28.1937 22.6312C28.1937 17.0509 31.0458 12.0906 35.324 9.54849H35.014C34.642 9.54849 34.27 9.42448 33.96 9.17647C33.6499 8.92846 33.4639 8.55644 33.4639 8.12241C33.4019 6.51033 33.3399 4.89825 33.3399 3.22416C33.3399 2.85215 33.4639 2.41812 33.7739 2.17011C34.084 1.8601 34.456 1.73609 34.828 1.73609C34.828 1.73609 49.3987 1.55008 49.4608 1.55008C49.8948 1.55008 50.2668 1.73609 50.5768 2.0461C50.8248 2.23211 50.9488 2.66614 50.9488 3.10016C50.8248 4.58823 50.7008 6.13831 50.6388 7.62639C50.5768 8.37043 49.9568 8.99046 49.1507 8.99046C48.7787 8.99046 48.4067 8.99046 48.0967 9.05246C52.8709 11.4086 56.0331 16.5548 55.9711 22.5692C55.8471 30.6916 49.5228 37.2639 41.8964 37.2639ZM42.2064 18.725C39.9123 18.725 38.4862 20.9571 38.4862 23.0652C38.4862 24.9873 39.1062 27.2814 42.0204 27.2814C44.2525 27.2814 45.3065 25.1113 45.3065 23.0032C45.3685 20.9571 44.2525 18.725 42.2064 18.725Z" fill="white"/>
<path d="M49.3988 2.97615C49.2748 4.46423 49.1508 6.01431 49.0888 7.50238C44.3765 7.68839 39.6643 7.8744 34.9521 8.06041C34.8901 6.44833 34.8901 4.83625 34.828 3.16216C39.6643 3.10016 44.5625 3.03815 49.3988 2.97615ZM42.0824 9.11446C49.2748 9.11446 54.5451 15.1908 54.421 22.5692C54.359 29.6375 48.9028 35.7758 41.8964 35.7758C35.0141 35.7758 29.7438 29.6995 29.6818 22.6312C29.6818 15.3768 35.0141 9.11446 42.0824 9.11446ZM42.0824 28.7695C45.1206 28.7695 46.8567 26.1033 46.8567 23.0032C46.8567 19.903 44.9966 17.2369 42.2064 17.2369C39.1063 17.2369 36.9982 20.027 36.9982 23.0652C36.9982 26.2893 38.6102 28.7695 42.0824 28.7695ZM49.3988 0C44.5005 0.0620032 39.6643 0.124006 34.766 0.186009C33.96 0.186009 33.154 0.558028 32.5959 1.11606C32.0379 1.67409 31.7279 2.48013 31.7279 3.22416C31.7899 4.83625 31.8519 6.44833 31.8519 8.12241C31.8519 8.68044 32.0379 9.23847 32.3479 9.7345C28.9377 12.7106 26.6436 17.3609 26.7056 22.5692C26.7676 31.4976 33.588 38.69 41.8964 38.69C50.3908 38.69 57.3352 31.4976 57.4592 22.5692C57.5212 17.1129 55.1651 12.3386 51.4449 9.36248C51.8169 8.92846 52.0649 8.30842 52.1269 7.68839C52.2509 6.20032 52.3749 4.71224 52.4369 3.22416C52.4369 3.10016 52.4369 3.03815 52.4369 2.91415C52.4369 1.36407 51.1349 0 49.3988 0ZM42.0824 25.7933C41.3384 25.7933 40.0363 25.7933 40.0363 23.0652C40.0363 21.6391 40.8424 20.213 42.2064 20.213C43.2605 20.213 43.8805 21.6391 43.8805 23.0032C43.8805 23.1272 43.8185 25.7933 42.0824 25.7933Z" fill="#A393EB"/>
<path d="M73.5801 37.574C73.2081 37.574 72.7741 37.388 72.5261 37.078C70.1699 34.3498 67.8138 31.6217 65.4577 28.9556C65.3957 30.6916 65.2717 32.3657 65.2097 34.1018C65.1477 34.8458 64.5897 35.4039 63.9076 35.5279C61.6755 35.7759 59.5054 36.0239 57.2733 36.2719C57.2113 36.2719 57.1493 36.2719 57.0253 36.2719C56.6533 36.2719 56.3432 36.1479 56.0952 35.8999C55.7852 35.6519 55.5992 35.2179 55.5992 34.7838C55.4752 26.2274 55.4132 17.609 55.2892 9.05254C55.2892 8.2465 55.9092 7.56446 56.7773 7.56446C59.6294 7.50246 62.4816 7.37845 65.3337 7.31645H65.3957C65.8297 7.31645 66.2017 7.50246 66.4498 7.81247C66.7598 8.12249 66.8838 8.55651 66.8218 8.99053C66.6978 10.2926 66.5738 11.5327 66.3878 12.8347C67.9998 10.9126 69.6119 8.99053 71.162 7.06843C71.472 6.69642 71.906 6.51041 72.4021 6.51041C72.7121 6.51041 72.9601 6.63441 73.2081 6.75842C75.1302 8.12249 76.9903 9.42455 78.9124 10.7886C79.2224 11.0366 79.4704 11.4087 79.5324 11.7807C79.5944 12.2147 79.4704 12.5867 79.2224 12.8967C76.8043 15.7489 74.3862 18.663 71.968 21.5152C74.8202 24.4293 77.7343 27.3435 80.5865 30.3196C80.8965 30.6296 81.0205 31.0017 81.0205 31.4357C81.0205 31.8697 80.7725 32.2417 80.4625 32.4897C78.4784 34.0398 76.5563 35.6519 74.6342 37.264C74.3242 37.45 73.9521 37.574 73.5801 37.574Z" fill="white"/>
<path d="M72.3399 7.87442C74.262 9.23849 76.1221 10.5406 78.0442 11.9046C75.3161 15.1288 72.65 18.353 69.9838 21.5771C73.208 24.8013 76.3702 28.0875 79.5323 31.3116C77.5482 32.8617 75.6261 34.4738 73.704 36.0859C70.5419 32.4277 67.3797 28.7695 64.1555 25.1113C64.0315 28.0254 63.8455 31.0016 63.7215 33.9157C61.4894 34.1638 59.3193 34.4118 57.0872 34.6598C56.9632 26.1033 56.9012 17.4849 56.7772 8.92847C59.6293 8.86647 62.4815 8.74246 65.3336 8.68046C65.0236 11.5946 64.7136 14.5708 64.4035 17.4849C67.0077 14.3227 69.6738 11.0986 72.3399 7.87442ZM72.464 4.89827C71.5339 4.83626 70.6039 5.20828 69.9838 5.95232C69.4258 6.63436 68.8058 7.37839 68.2477 8.06043C68.1237 7.5644 67.8757 7.06838 67.5037 6.63436C66.9457 6.07633 66.2016 5.70431 65.3956 5.70431C65.3336 5.70431 65.2716 5.70431 65.2096 5.70431C62.3574 5.76631 59.5053 5.82832 56.6532 5.95232C54.9791 6.01432 53.677 7.31639 53.739 8.92847C53.863 17.4849 53.987 26.1033 54.049 34.6598C54.049 35.5278 54.421 36.2719 55.0411 36.8299C55.5371 37.2639 56.2191 37.5739 56.9012 37.5739C57.0252 37.5739 57.2112 37.5739 57.3352 37.5739C59.5673 37.3259 61.7374 37.0779 63.9695 36.8299C65.3956 36.6439 66.5737 35.4658 66.6357 34.0398C66.6357 33.5437 66.6977 33.1097 66.6977 32.6137C68.2477 34.4118 69.7978 36.1479 71.3479 37.946C71.9059 38.628 72.712 38.938 73.518 39C74.2 39 74.9441 38.814 75.5021 38.318C77.4242 36.7059 79.4083 35.1558 81.3304 33.5437C81.9504 33.0477 82.3845 32.2417 82.4465 31.4356C82.5085 30.6296 82.1985 29.8235 81.6404 29.2035C79.0983 26.5994 76.5562 23.9952 73.952 21.3911C76.0601 18.849 78.2303 16.3068 80.3384 13.7647C80.8964 13.1447 81.1444 12.3386 81.0204 11.4706C80.8964 10.6646 80.4624 9.92052 79.7803 9.4245C77.8582 8.06043 75.9981 6.75836 74.076 5.39429C73.642 5.14628 73.022 4.96027 72.464 4.89827Z" fill="#A393EB"/>
<path d="M92.6149 35.8999C85.1125 36.0239 78.8502 29.5756 78.6642 21.5152C78.4782 13.2687 84.5545 6.4484 92.2429 6.32439C100.117 6.20038 106.318 12.6487 106.38 21.0191C106.442 29.0795 100.303 35.7759 92.6149 35.8999ZM92.6149 17.361C90.3208 17.423 88.9567 19.6551 89.0187 21.7632C89.0807 23.6853 89.7008 25.9174 92.6769 25.9174C94.909 25.8554 95.9011 23.6853 95.9011 21.5772C95.8391 19.5311 94.661 17.2989 92.6149 17.361Z" fill="white"/>
<path d="M92.3049 7.75045C99.4973 7.62644 104.83 13.5787 104.892 20.9571C104.954 28.0255 99.6213 34.2878 92.615 34.4118C85.7326 34.5358 80.3383 28.5835 80.1523 21.4531C80.0283 14.2608 85.2366 7.87446 92.3049 7.75045ZM92.677 27.4055C95.7151 27.3434 97.3892 24.6153 97.3892 21.5772C97.3272 18.477 95.4671 15.8729 92.615 15.8729C89.5148 15.9349 87.4687 18.725 87.5307 21.8252C87.5307 24.9873 89.2048 27.4675 92.677 27.4055ZM92.2429 4.7743C83.6865 4.8983 76.9282 12.4627 77.1762 21.5152C77.3622 30.3816 84.3685 37.512 92.677 37.388C101.171 37.264 107.992 29.8856 107.93 20.9571C107.868 11.7807 100.985 4.65029 92.2429 4.7743ZM92.615 24.4293C91.8709 24.4293 90.5689 24.4913 90.5068 21.7632C90.5068 20.3371 91.2509 18.849 92.615 18.849C93.669 18.849 94.289 20.2751 94.351 21.5772C94.351 21.7012 94.351 24.4293 92.615 24.4293Z" fill="#A393EB"/>
<path d="M114.378 34.9078C112.146 34.8458 108.984 34.5357 107.186 34.0397C106.566 33.8537 106.132 33.2957 106.132 32.6136C106.07 24.6152 106.008 16.5548 105.946 8.55642C105.946 7.87438 106.442 7.25435 107.062 7.13035C109.17 6.63432 113.138 6.2623 116.238 6.38631C124.051 6.57232 128.391 9.36246 128.267 13.8887C128.205 15.7488 127.151 17.4229 125.105 18.9729C128.515 20.337 130.499 22.7551 130.375 25.4213C130.189 32.3036 122.191 35.0938 114.378 34.9078ZM115.618 26.4753C115.804 26.4753 115.99 26.4753 116.176 26.5373C116.672 26.5373 119.276 26.5373 119.338 25.3593C119.338 25.1113 119.338 24.3052 117.23 24.3052C116.672 24.3052 116.114 24.3052 115.618 24.4292C115.618 25.0493 115.618 25.7313 115.618 26.4753ZM115.618 15.6868C116.424 15.4388 117.292 14.8807 117.354 14.5087C117.354 14.0127 116.238 14.0127 116.114 14.0127C115.928 14.0127 115.804 14.0127 115.618 14.0127C115.618 14.5707 115.618 15.1288 115.618 15.6868Z" fill="white"/>
<path d="M116.238 7.87442C121.571 7.99842 126.965 9.5485 126.779 13.8267C126.717 16.1208 124.423 17.9189 121.446 19.407C125.477 20.151 129.011 22.2592 128.949 25.3593C128.763 31.4976 121.074 33.6677 114.44 33.4817C112.332 33.4197 109.232 33.1097 107.682 32.6757C107.62 24.6773 107.558 16.6169 107.496 8.61845C109.48 8.06043 113.324 7.75041 116.238 7.87442ZM114.812 17.2989C116.176 17.3609 118.78 16.3068 118.842 14.5708C118.904 13.1447 117.54 12.5867 116.114 12.5247C115.37 12.5247 114.688 12.6487 114.068 12.8347C114.068 14.3227 114.068 15.7488 114.068 17.2369C114.316 17.2369 114.564 17.2989 114.812 17.2989ZM116.176 27.9634C118.284 28.0254 120.826 27.5294 120.888 25.3593C120.95 23.4372 119.214 22.8172 117.292 22.7552C116.114 22.6932 114.936 22.9412 114.13 23.1892C114.13 24.6773 114.13 26.2274 114.13 27.7154C114.626 27.8394 115.37 27.9634 116.176 27.9634ZM116.3 4.89827C113.014 4.83626 108.984 5.14628 106.69 5.70431C105.326 6.01432 104.396 7.25439 104.396 8.61845C104.458 16.6169 104.52 24.6773 104.644 32.6757C104.644 33.9777 105.512 35.1558 106.814 35.5278C108.798 36.0859 112.084 36.3959 114.378 36.4579C122.935 36.6439 131.677 33.4197 131.925 25.4833C131.987 22.7552 130.499 20.3371 127.771 18.601C128.887 17.3609 129.755 15.8108 129.817 13.9507C130.003 8.49445 124.919 5.08428 116.3 4.89827Z" fill="#A393EB"/>
<path d="M137.071 36.0858C137.009 36.0858 136.885 36.0858 136.761 36.0858C134.219 35.5898 131.677 35.0938 129.135 34.6597C128.701 34.5977 128.329 34.3497 128.143 33.9777C127.895 33.6057 127.895 33.1717 128.019 32.7996C130.685 24.2432 133.413 15.7488 136.203 7.19233C136.389 6.5723 137.009 6.13828 137.629 6.13828C137.629 6.13828 144.946 6.38629 144.946 6.44829C145.566 6.44829 146.124 6.88231 146.31 7.44034C149.286 15.5628 152.262 23.6852 155.176 31.8076C155.3 32.1796 155.3 32.6136 155.114 32.9856C154.928 33.3577 154.556 33.6057 154.184 33.7297C151.704 34.4117 149.224 35.0938 146.806 35.7758C146.682 35.8378 146.558 35.8378 146.372 35.8378C145.752 35.8378 145.132 35.4038 144.946 34.7837C144.574 33.4817 144.14 32.1176 143.768 30.8155C142.342 30.8775 140.853 31.0015 139.427 31.0635C139.117 32.3656 138.807 33.7297 138.559 35.0317C138.373 35.6518 137.753 36.0858 137.071 36.0858ZM141.102 23.0651C141.226 23.0651 141.412 23.0651 141.536 23.0651C141.474 22.8171 141.412 22.5691 141.288 22.3211C141.226 22.5691 141.164 22.8171 141.102 23.0651Z" fill="white"/>
<path d="M137.629 7.56437C140.047 7.62637 142.466 7.75038 144.884 7.87438C147.86 15.9968 150.836 24.1192 153.812 32.2416C151.332 32.9237 148.852 33.6057 146.434 34.2877C145.938 32.5516 145.442 30.8776 144.946 29.1415C142.714 29.2655 140.481 29.3895 138.249 29.5755C137.877 31.2496 137.505 32.9237 137.133 34.5977C134.591 34.1017 132.049 33.6057 129.507 33.1097C132.173 24.6152 134.839 16.1208 137.629 7.56437ZM139.179 24.6772C140.605 24.6152 142.094 24.4912 143.52 24.4292C142.714 21.8251 141.969 19.159 141.163 16.5548C140.481 19.221 139.799 21.9491 139.179 24.6772ZM137.629 4.58822C136.327 4.58822 135.149 5.39426 134.715 6.63432C131.987 15.1288 129.259 23.6852 126.593 32.2416C126.345 33.0477 126.469 33.9157 126.903 34.6597C127.337 35.4038 128.081 35.8998 128.887 36.0238C131.429 36.5198 133.971 37.0159 136.513 37.4499C136.699 37.5119 136.885 37.5119 137.071 37.5119C138.435 37.5119 139.675 36.5818 139.985 35.2178C140.171 34.2877 140.419 33.2957 140.605 32.3656C141.287 32.3036 141.97 32.3036 142.652 32.2416C142.962 33.1717 143.21 34.1637 143.52 35.0938C143.892 36.3958 145.07 37.2019 146.372 37.2639C146.62 37.2639 146.93 37.2019 147.178 37.1399C149.658 36.4578 152.076 35.7758 154.556 35.0938C155.362 34.8458 156.044 34.3497 156.416 33.6057C156.788 32.8617 156.85 31.9936 156.602 31.2496C153.688 23.1272 150.712 15.0047 147.736 6.82033C147.302 5.70427 146.248 4.89823 145.008 4.83623C142.59 4.71222 140.171 4.65022 137.753 4.52621C137.691 4.58822 137.691 4.58822 137.629 4.58822Z" fill="#A393EB"/>
<path d="M162.617 35.2799C160.384 35.2178 157.222 34.9698 155.424 34.4738C154.804 34.2878 154.37 33.7298 154.308 33.0477C154.184 25.0493 154.06 17.0509 153.874 8.99051C153.874 8.30848 154.308 7.68845 154.99 7.50244C157.098 6.94441 161.066 6.57239 164.167 6.63439C171.979 6.7584 176.381 9.48654 176.257 14.0128C176.195 15.8729 175.203 17.5469 173.095 19.097C176.505 20.4611 178.489 22.8172 178.427 25.5454C178.427 32.4897 170.429 35.4039 162.617 35.2799ZM163.795 26.7854C163.981 26.7854 164.167 26.7854 164.353 26.7854C164.849 26.7854 167.453 26.7854 167.515 25.6074C167.515 25.3593 167.515 24.5533 165.407 24.5533C164.849 24.5533 164.291 24.6153 163.795 24.6773C163.795 25.4213 163.795 26.1034 163.795 26.7854ZM163.671 16.0589C164.477 15.8109 165.345 15.2528 165.345 14.8808C165.345 14.3848 164.229 14.3848 164.105 14.3848C163.919 14.3848 163.795 14.3848 163.609 14.3848C163.671 14.9428 163.671 15.5008 163.671 16.0589Z" fill="white"/>
<path d="M164.229 8.18443C169.561 8.24644 174.955 9.73451 174.831 14.0127C174.769 16.3068 172.537 18.1049 169.499 19.655C173.529 20.3371 177.125 22.4452 177.001 25.5453C176.877 31.6836 169.251 33.9157 162.617 33.7917C160.508 33.7297 157.408 33.4817 155.796 33.0477C155.672 25.0493 155.548 17.0509 155.424 8.99047C157.47 8.49445 161.314 8.12243 164.229 8.18443ZM162.865 17.6709C164.229 17.6709 166.833 16.6169 166.833 14.8808C166.833 13.4547 165.531 12.8967 164.105 12.8347C163.361 12.8347 162.679 12.9587 162.058 13.1447C162.058 14.6328 162.12 16.0588 162.12 17.5469C162.431 17.6089 162.617 17.6709 162.865 17.6709ZM164.353 28.3355C166.461 28.3975 169.003 27.8394 169.003 25.6693C169.065 23.7472 167.267 23.1272 165.407 23.0652C164.229 23.0652 163.051 23.2512 162.245 23.5612C162.245 25.0493 162.245 26.5994 162.245 28.0874C162.803 28.2115 163.547 28.2735 164.353 28.3355ZM164.291 5.20828C161.004 5.14628 156.974 5.5183 154.742 6.13833C153.378 6.51035 152.448 7.68841 152.448 9.05248C152.572 17.0509 152.758 25.0493 152.882 33.1097C152.882 34.4118 153.812 35.5278 155.052 35.8998C157.036 36.4579 160.322 36.7679 162.617 36.7679C171.173 36.8919 179.853 33.5437 180.101 25.6073C180.163 22.8792 178.613 20.4611 175.885 18.787C177.001 17.5469 177.869 15.9968 177.931 14.0747C177.993 8.74246 172.909 5.39429 164.291 5.20828Z" fill="#A393EB"/>
<path d="M185.372 35.0938C185 35.0938 184.566 34.9078 184.318 34.5978C184.07 34.2878 183.884 33.9157 183.946 33.5437C184.07 30.3816 184.194 27.1574 184.318 23.9952C181.465 20.275 178.613 16.6169 175.761 12.9587C175.513 12.6487 175.389 12.2146 175.451 11.8426C175.513 11.4086 175.761 11.0986 176.071 10.8506C178.365 9.30048 180.721 7.7504 183.078 6.26233C183.326 6.07632 183.636 6.01431 183.946 6.01431C184.07 6.01431 184.132 6.01431 184.256 6.01431C184.628 6.07632 185 6.32433 185.248 6.63434C186.922 9.17647 188.658 11.6566 190.332 14.1987C191.572 11.8426 192.874 9.42449 194.176 7.06837C194.424 6.57234 194.982 6.26233 195.54 6.26233C195.726 6.26233 195.912 6.32433 196.036 6.38633C198.268 7.25438 200.5 8.06042 202.733 8.92846C203.167 9.11447 203.477 9.42449 203.601 9.79651C203.725 10.2305 203.725 10.6645 203.477 11.0366C200.872 15.3148 198.33 19.655 195.726 23.9952C195.726 27.2814 195.726 30.5676 195.726 33.9157C195.726 34.2878 195.54 34.7218 195.292 34.9698C194.982 35.2178 194.61 35.4038 194.238 35.4038C194.176 35.3418 185.372 35.0938 185.372 35.0938Z" fill="white"/>
<path d="M183.946 7.44039C186.116 10.6645 188.286 13.8887 190.394 17.1129C192.068 14.0127 193.742 10.8506 195.416 7.7504C197.648 8.61845 199.88 9.42449 202.113 10.2925C199.446 14.6948 196.78 19.159 194.176 23.5612C194.176 26.9714 194.176 30.4436 194.176 33.8537C191.262 33.7297 188.348 33.6677 185.372 33.6057C185.496 30.2575 185.682 26.8474 185.806 23.4992C182.892 19.655 179.915 15.8108 176.939 12.0286C179.295 10.4785 181.59 8.92846 183.946 7.44039ZM183.946 4.46423C183.326 4.46423 182.768 4.65024 182.21 4.96026C179.853 6.51034 177.559 7.99841 175.203 9.54849C174.521 9.98251 174.025 10.7266 173.901 11.5326C173.777 12.3386 173.963 13.1447 174.459 13.8267C177.187 17.3609 179.977 20.8951 182.706 24.4913C182.582 27.5294 182.458 30.5056 182.334 33.5437C182.272 34.3498 182.582 35.0938 183.14 35.7138C183.698 36.2719 184.442 36.6439 185.248 36.6439C188.162 36.7059 191.076 36.8299 194.052 36.8919H194.114C194.92 36.8919 195.664 36.5819 196.222 36.0858C196.78 35.5278 197.152 34.7838 197.152 33.9777C197.152 30.8156 197.152 27.6534 197.152 24.4913C199.632 20.275 202.175 16.1208 204.717 11.9046C205.151 11.1606 205.275 10.2305 204.965 9.42449C204.655 8.61844 204.035 7.93641 203.229 7.62639C200.997 6.75835 198.764 5.95231 196.532 5.08426C196.16 4.96026 195.85 4.89826 195.478 4.89826C194.362 4.89826 193.308 5.45628 192.75 6.51034C191.882 8.12242 191.014 9.7965 190.146 11.4086C188.906 9.6105 187.728 7.7504 186.488 5.95231C186.054 5.27027 185.372 4.83625 184.566 4.65024C184.38 4.46423 184.194 4.46423 183.946 4.46423Z" fill="#A393EB"/>
</svg>
