<svg width="133" height="134" viewBox="0 0 133 134" fill="none" xmlns="http://www.w3.org/2000/svg">
<ellipse cx="66.5" cy="67" rx="66.5" ry="67" fill="#97459A"/>
<circle cx="65.9905" cy="67.051" r="31" fill="#A393EB"/>
<path d="M14 68.3826L15.3361 57.041L17.1175 57.252L16.5608 61.7887L27.4165 62.8964L27.1381 65.112L16.3381 64.0042L15.8371 68.5409L14 68.3826Z" fill="white"/>
<path d="M18.2946 48.7751C18.5762 48.0773 18.9705 47.4869 19.4774 47.0038C19.9844 46.5207 20.5476 46.145 21.1672 45.8766C21.7868 45.6083 22.5191 45.5009 23.2513 45.5546C24.0399 45.5546 24.8285 45.7693 25.6734 46.0913C26.0113 46.1987 26.2366 46.3597 26.293 46.4671C26.4056 46.5744 26.4056 46.7354 26.293 46.9501L23.0823 54.4646C23.8146 54.733 24.4905 54.894 25.1101 54.894C25.7297 54.9477 26.293 54.8403 26.7436 54.6793C27.2505 54.5183 27.6448 54.2499 27.9828 53.8742C28.3207 53.4985 28.6587 53.0691 28.8277 52.5323C29.053 52.0492 29.1656 51.6198 29.222 51.1904C29.2783 50.8147 29.2783 50.439 29.222 50.1169C29.1656 49.7949 29.222 49.5802 29.222 49.3655C29.1656 49.1508 29.1656 48.9361 29.222 48.8288C29.2783 48.6677 29.4473 48.5604 29.6163 48.5067L30.6865 48.2383C30.9118 48.6141 31.0808 49.0434 31.1371 49.4728C31.1934 49.9022 31.2497 50.3316 31.2497 50.8147C31.2497 51.2441 31.1934 51.7272 31.0808 52.1566C30.9681 52.586 30.8554 53.0154 30.6301 53.4448C30.2922 54.2499 29.8416 54.894 29.2783 55.4308C28.715 55.9675 28.0391 56.3969 27.3069 56.6653C26.5746 56.9337 25.7297 57.041 24.8285 57.041C23.9272 56.9873 22.9697 56.7726 21.8995 56.3969C21.0546 56.0749 20.3223 55.6455 19.7591 55.1087C19.1395 54.572 18.6888 53.9815 18.3509 53.3374C18.0129 52.6933 17.8439 51.9419 17.8439 51.1904C17.7876 50.3853 17.9566 49.5802 18.2946 48.7751ZM19.928 49.3655C19.5337 50.278 19.4774 51.1368 19.8154 51.8882C20.1533 52.6397 20.7729 53.2838 21.7305 53.8205L24.3215 47.8089C23.8709 47.6479 23.4203 47.5406 22.9697 47.4869C22.5191 47.4869 22.1248 47.5406 21.7305 47.6479C21.3362 47.7553 20.9982 47.97 20.6603 48.292C20.3786 48.5604 20.1533 48.8824 19.928 49.3655Z" fill="white"/>
<path d="M30.4696 31.1664L39.8747 38.9401L38.4319 40.6971L30.4162 34.0416L28.0115 36.8635C29.1337 37.9284 30.0421 38.8868 30.7902 39.7387C31.5384 40.5906 32.1262 41.3893 32.5537 42.0815C32.9812 42.7737 33.2484 43.4126 33.4621 43.9983C33.6225 44.584 33.6759 45.0632 33.6759 45.5423C33.6225 46.0215 33.5156 46.3943 33.3553 46.767C33.1949 47.1397 32.9812 47.4591 32.714 47.7786C32.2331 48.311 31.9124 48.524 31.7521 48.3643L30.6299 47.4591L31.0574 46.9799C31.2177 46.767 31.3781 46.554 31.4849 46.2345C31.5918 45.9683 31.6453 45.6488 31.5918 45.2761C31.5384 44.9034 31.4315 44.4775 31.2177 43.945C31.004 43.4658 30.6834 42.8801 30.2024 42.2412C29.7215 41.6023 29.1337 40.8569 28.3321 40.005C27.584 39.153 26.6221 38.2479 25.4999 37.183L30.4696 31.1664Z" fill="white"/>
<path d="M39.6781 23.4887C40.3159 23.0843 40.9538 22.7954 41.5916 22.6221C42.2294 22.5065 42.8672 22.5065 43.505 22.6799C44.1428 22.8532 44.7274 23.1421 45.3121 23.6043C45.8968 24.0665 46.4283 24.7021 46.8535 25.511C47.0661 25.8577 47.1192 26.0888 47.1192 26.2043C47.1192 26.3777 47.0129 26.4932 46.8535 26.6088L40.0502 31.2311C40.4754 31.9244 40.9006 32.4444 41.3258 32.8489C41.751 33.2533 42.2294 33.5422 42.7077 33.6578C43.1861 33.8311 43.6644 33.8311 44.1428 33.7155C44.6211 33.6 45.0995 33.4267 45.5778 33.08C46.0031 32.7911 46.3751 32.4444 46.6409 32.1555C46.9066 31.8089 47.1192 31.52 47.2787 31.2311C47.4381 30.9422 47.5444 30.7111 47.6507 30.4799C47.757 30.2488 47.8633 30.1333 47.9696 30.0177C48.1291 29.9022 48.2885 29.9022 48.448 29.9599L49.4578 30.3644C49.4047 30.8266 49.2984 31.2888 49.0858 31.6933C48.9263 32.0977 48.6606 32.5022 48.3948 32.9066C48.1291 33.3111 47.8102 33.6578 47.4913 34.0044C47.1724 34.3511 46.8003 34.64 46.4283 34.8711C45.7373 35.3333 44.9932 35.68 44.2491 35.8533C43.505 36.0267 42.7609 35.9689 42.0168 35.7956C41.2727 35.6222 40.5817 35.2178 39.8907 34.64C39.1998 34.0622 38.6151 33.3111 38.0305 32.3289C37.6053 31.5777 37.2864 30.7688 37.1269 29.9022C36.9675 29.0933 36.9675 28.2844 37.0738 27.4755C37.1801 26.7243 37.499 25.9732 37.9242 25.2799C38.3494 24.5865 38.934 24.0088 39.6781 23.4887ZM40.5817 24.991C39.7313 25.5688 39.2529 26.2621 39.0403 27.1288C38.8809 27.9955 38.9872 28.9199 39.4124 29.9599L44.8869 26.2043C44.6211 25.7421 44.3554 25.3954 44.0365 25.1065C43.7176 24.8177 43.3455 24.6443 42.9735 24.5288C42.6014 24.4132 42.2294 24.4132 41.8042 24.471C41.379 24.5288 41.0069 24.7021 40.5817 24.991Z" fill="white"/>
<path d="M55.7871 12L56.857 16.9042C57.8199 16.7389 58.7828 16.6838 59.6387 16.8491C60.4946 16.9593 61.2436 17.2899 61.939 17.6756C62.6344 18.0614 63.1694 18.6675 63.6508 19.3287C64.1323 19.99 64.4533 20.8165 64.6137 21.7533C64.8277 22.6901 64.8277 23.5717 64.7207 24.3983C64.6137 25.2248 64.2928 25.9963 63.8648 26.6575C63.4369 27.3187 62.8484 27.9249 62.153 28.4208C61.4575 28.9167 60.6016 29.3025 59.6387 29.578L60.4946 33.6556L58.3013 34.0413L57.4454 29.9637C56.4825 30.1841 55.5196 30.1841 54.6637 30.0739C53.8078 29.9637 53.0588 29.6882 52.3634 29.2474C51.668 28.8065 51.133 28.2555 50.6516 27.5943C50.1701 26.8779 49.8491 26.1065 49.6352 25.1697C49.4212 24.2329 49.4212 23.3513 49.5282 22.5247C49.6887 21.6982 49.9561 20.9818 50.3841 20.2655C50.812 19.6043 51.4005 18.9981 52.0959 18.5022C52.7914 18.0063 53.6473 17.6205 54.6102 17.345L53.5403 12.4408L55.7871 12ZM51.9354 24.6187C52.2564 25.9963 52.8449 26.9881 53.7008 27.6494C54.6102 28.3106 55.7336 28.4759 57.1244 28.2555L55.1451 19.0532C53.8078 19.439 52.8449 20.1002 52.3099 21.0921C51.775 22.139 51.668 23.2962 51.9354 24.6187ZM62.3135 22.2492C62.153 21.588 61.939 20.9818 61.618 20.4859C61.2971 19.99 60.9226 19.5492 60.4946 19.2736C60.0667 18.943 59.5317 18.7226 58.9968 18.6675C58.4083 18.5573 57.8199 18.5573 57.1244 18.6675L59.1038 27.8147C59.7992 27.5943 60.3341 27.3738 60.8156 26.9881C61.2971 26.6575 61.6715 26.2167 61.939 25.7758C62.2065 25.2799 62.367 24.784 62.4204 24.1778C62.5274 23.6268 62.4739 22.9656 62.3135 22.2492Z" fill="white"/>
<path d="M73.8152 15.9028C74.7788 16.0085 75.5724 16.2729 76.3093 16.643C77.0461 17.0131 77.613 17.5418 78.0664 18.1234C78.5199 18.705 78.8033 19.4452 79.03 20.2383C79.2001 21.0314 79.2001 21.8773 79.0867 22.829C78.9733 23.7807 78.6899 24.6267 78.2932 25.314C77.8964 26.0542 77.3862 26.6358 76.7627 27.1117C76.1392 27.5875 75.459 27.9048 74.6655 28.1162C73.8719 28.3277 72.965 28.3277 72.0581 28.222C71.0945 28.1162 70.3009 27.8519 69.564 27.4818C68.8272 27.1117 68.2603 26.583 67.8069 26.0014C67.3534 25.4198 67.0133 24.6796 66.8433 23.8865C66.6732 23.0934 66.6732 22.1946 66.7866 21.2957C66.8999 20.344 67.1834 19.4981 67.5801 18.8107C67.9769 18.0705 68.4871 17.4889 69.1106 17.0131C69.7341 16.5372 70.4143 16.22 71.2645 16.0085C72.1147 15.797 72.8516 15.797 73.8152 15.9028ZM72.2281 26.4772C73.4751 26.6358 74.4387 26.3715 75.1756 25.6841C75.9125 24.9968 76.3659 23.9393 76.5927 22.5647C76.8194 21.19 76.6494 20.0268 76.1392 19.1808C75.6291 18.3349 74.7788 17.8062 73.5318 17.6475C72.2848 17.4889 71.3212 17.7533 70.5843 18.4406C69.8474 19.128 69.394 20.1854 69.1672 21.5601C68.9405 22.9348 69.1106 24.098 69.6207 24.9439C70.1309 25.8427 70.9811 26.3186 72.2281 26.4772Z" fill="white"/>
<path d="M94.4988 24.1608L88.8408 34.9997L86.6908 33.9951L89.2935 28.9722L83.9184 26.4872L81.3157 31.5101L79.1657 30.5055L84.8237 19.6666L86.9737 20.6712L84.7105 24.9539L90.0856 27.4389L92.3488 23.1562L94.4988 24.1608Z" fill="white"/>
<path d="M109.832 38.1605L108.417 39.2724L104.513 34.9838L96.083 41.7079L94.4987 39.9607L104.344 32.1247L109.832 38.1605Z" fill="white"/>
<path d="M113.978 45.4519C114.347 46.3324 114.558 47.2129 114.61 48.0933C114.663 48.9738 114.558 49.7369 114.294 50.4999C114.031 51.263 113.609 51.9674 113.03 52.613C112.451 53.2587 111.766 53.787 110.87 54.2566C110.027 54.7262 109.185 54.961 108.394 55.0783C107.604 55.1957 106.814 55.0783 106.129 54.8436C105.444 54.6088 104.812 54.1979 104.233 53.6109C103.653 53.0239 103.179 52.3196 102.811 51.3804C102.442 50.4999 102.231 49.6195 102.178 48.739C102.126 47.8585 102.231 47.0955 102.495 46.3324C102.758 45.5693 103.179 44.865 103.759 44.2193C104.338 43.5736 105.076 43.0453 105.919 42.5758C106.761 42.1062 107.604 41.8714 108.394 41.754C109.185 41.6366 109.975 41.754 110.66 41.9888C111.344 42.2236 111.976 42.6345 112.556 43.2214C113.083 43.8084 113.557 44.5715 113.978 45.4519ZM104.338 50.5586C104.812 51.7326 105.55 52.3783 106.498 52.613C107.446 52.7891 108.552 52.5544 109.817 51.9087C111.081 51.263 111.924 50.4412 112.398 49.5021C112.872 48.5629 112.819 47.5064 112.345 46.3324C111.818 45.1584 111.134 44.4541 110.185 44.278C109.237 44.1019 108.131 44.3367 106.867 44.9824C105.602 45.628 104.76 46.4498 104.286 47.389C103.811 48.2694 103.864 49.3847 104.338 50.5586Z" fill="white"/>
<path d="M101.207 59.1667L117.385 57.041L117.546 58.3696C117.6 58.6885 117.439 58.901 117.171 59.0073L115.832 59.3793C116.528 59.8045 117.064 60.3359 117.546 60.9205C118.028 61.505 118.296 62.249 118.403 63.0993C118.51 63.7902 118.457 64.4279 118.243 65.0125C118.028 65.5971 117.707 66.1285 117.225 66.6068C116.743 67.0851 116.153 67.4571 115.403 67.7759C114.653 68.0948 113.796 68.3074 112.778 68.4668C111.868 68.5731 111.01 68.5731 110.207 68.4136C109.403 68.2542 108.707 68.0416 108.064 67.6696C107.421 67.2976 106.939 66.8194 106.511 66.1816C106.082 65.5971 105.868 64.9062 105.761 64.0559C105.653 63.3119 105.707 62.6742 105.868 62.1428C106.028 61.6113 106.296 61.0799 106.725 60.6548L101.421 61.3456L101.207 59.1667ZM116.528 62.6742C116.421 61.9833 116.207 61.3988 115.832 60.9736C115.457 60.4953 114.975 60.1233 114.332 59.7513L108.546 60.4953C108.118 60.9205 107.796 61.3988 107.636 61.877C107.475 62.3553 107.475 62.8868 107.528 63.4182C107.689 64.4811 108.171 65.2782 109.028 65.7565C109.885 66.2348 111.064 66.3942 112.564 66.1816C113.314 66.0753 114.01 65.9159 114.546 65.7033C115.082 65.4908 115.51 65.2251 115.832 64.9593C116.153 64.6405 116.368 64.3216 116.475 63.9496C116.582 63.5776 116.582 63.1525 116.528 62.6742Z" fill="white"/>
<path d="M105.04 79.1508L105.428 77.0973L110.631 77.8673L110.797 77.0459C110.852 76.8406 110.852 76.6352 110.852 76.4812C110.852 76.3272 110.797 76.2245 110.741 76.0705C110.686 75.9678 110.631 75.8651 110.52 75.7625C110.409 75.6598 110.299 75.5571 110.188 75.4544L107.033 72.4768C106.812 72.3228 106.59 72.1174 106.535 71.8607C106.424 71.6554 106.424 71.3473 106.479 70.988L106.756 69.4992L110.852 73.5036C111.295 73.8629 111.572 74.2736 111.682 74.787C111.848 74.2223 112.07 73.7603 112.402 73.4009C112.679 73.0415 113.011 72.7335 113.343 72.5281C113.675 72.3228 114.062 72.1688 114.394 72.1174C114.782 72.0661 115.114 72.0661 115.501 72.1174C115.944 72.1688 116.332 72.3228 116.775 72.5281C117.162 72.7335 117.494 73.0415 117.771 73.4522C118.048 73.8629 118.214 74.325 118.38 74.941C118.49 75.5058 118.49 76.2245 118.324 76.9946L117.605 80.999L105.04 79.1508ZM114.893 74.325C114.228 74.2223 113.675 74.3763 113.232 74.7357C112.789 75.1464 112.513 75.7111 112.347 76.4812L112.07 78.124L116.276 78.7401L116.608 76.8919C116.664 76.4812 116.664 76.1218 116.608 75.8138C116.553 75.5058 116.387 75.2491 116.221 75.0437C116.055 74.8384 115.834 74.6843 115.612 74.5817C115.391 74.4277 115.169 74.325 114.893 74.325Z" fill="white"/>
<path d="M101.207 89.9484L102.179 87.7892L106.822 90.0591C107.038 88.9518 107.308 87.9553 107.632 87.0695C107.956 86.1838 108.388 85.4641 108.874 84.9104C109.36 84.3568 109.953 84.0246 110.601 83.9139C111.249 83.8032 112.005 83.9139 112.869 84.3568L116.54 86.1284L115.568 88.2875L112.221 86.6266C111.681 86.3498 111.249 86.2945 110.817 86.3498C110.385 86.4052 110.061 86.6267 109.737 86.9588C109.414 87.291 109.144 87.7892 108.928 88.4536C108.712 89.0626 108.496 89.8376 108.28 90.7788L113.301 93.2147L112.329 95.3738L101.207 89.9484Z" fill="white"/>
<path d="M105.317 104.087C104.814 104.638 104.255 105.079 103.585 105.409C102.914 105.74 102.3 105.905 101.629 105.905C100.958 105.96 100.232 105.795 99.5614 105.519C98.835 105.244 98.1645 104.803 97.4939 104.197C97.2145 103.977 97.0469 103.757 97.0469 103.647C96.991 103.481 97.0469 103.371 97.2145 103.206L102.858 97.0373C102.244 96.5416 101.685 96.156 101.126 95.9357C100.567 95.7154 100.008 95.6052 99.5056 95.5502C99.0026 95.5502 98.4997 95.6603 98.0527 95.8806C97.6057 96.1009 97.1586 96.4314 96.7675 96.872C96.3763 97.2576 96.1528 97.6431 95.9293 98.0287C95.7058 98.4142 95.6499 98.7447 95.5381 99.0751C95.4823 99.4056 95.3705 99.681 95.3705 99.9013C95.3146 100.122 95.2587 100.287 95.147 100.397C95.0352 100.562 94.8676 100.617 94.7 100.562L93.5824 100.507C93.5265 100.067 93.5265 99.6259 93.5824 99.1853C93.6383 98.7447 93.8059 98.3041 93.9735 97.8634C94.1412 97.4228 94.3647 97.0373 94.6441 96.5966C94.9235 96.156 95.2029 95.8256 95.4823 95.4951C96.0969 94.8342 96.7116 94.3384 97.438 94.008C98.1645 93.6775 98.9468 93.4572 99.7291 93.4572C100.511 93.4572 101.35 93.6224 102.188 93.9529C103.026 94.2834 103.864 94.8341 104.702 95.5502C105.373 96.156 105.876 96.7619 106.267 97.4779C106.658 98.1939 106.882 98.9099 106.937 99.681C106.993 100.452 106.937 101.168 106.658 101.939C106.379 102.655 105.932 103.426 105.317 104.087ZM103.976 102.931C104.702 102.16 104.982 101.333 104.926 100.507C104.87 99.681 104.479 98.8548 103.808 98.0287L99.282 102.986C99.6732 103.316 100.064 103.592 100.456 103.757C100.847 103.922 101.294 104.032 101.685 104.032C102.076 104.032 102.467 103.922 102.858 103.757C103.305 103.592 103.641 103.316 103.976 102.931Z" fill="white"/>
<path d="M91.8483 100.165L98.4828 110.639L96.3482 111.809L91.9637 104.844C91.8483 104.684 91.7906 104.578 91.6752 104.365C91.5598 104.206 91.5021 104.046 91.4444 103.834C91.5021 104.153 91.5021 104.472 91.5021 104.791C91.5021 104.791 91.5021 104.95 91.4444 105.269C91.3868 105.535 91.3867 105.907 91.3291 106.386C91.2714 106.864 91.2137 107.343 91.156 107.928C91.0983 108.512 91.0406 109.097 90.9829 109.682C90.8098 111.064 90.6368 112.659 90.406 114.414C90.406 114.573 90.3483 114.733 90.2906 114.946C90.2329 115.105 90.1175 115.265 89.9445 115.318L88.6753 116.009L82.0407 105.535L84.1753 104.365L88.5599 111.33C88.6753 111.49 88.7329 111.596 88.8483 111.809C88.9637 111.968 89.0214 112.128 89.0791 112.34C89.0791 112.181 89.0214 112.021 89.0214 111.862C89.0214 111.702 89.0214 111.543 89.0214 111.437C89.0214 111.437 89.0214 111.277 89.0791 110.958C89.1368 110.692 89.1368 110.32 89.1945 109.842C89.2522 109.363 89.3099 108.885 89.3676 108.3C89.4252 107.715 89.4829 107.13 89.5406 106.545C89.7137 105.163 89.8868 103.568 90.0598 101.813C90.0598 101.654 90.1175 101.495 90.1752 101.282C90.2329 101.069 90.3483 100.963 90.5214 100.91L91.8483 100.165ZM95.079 115.956C94.7905 116.115 94.5598 116.275 94.3867 116.434C94.2136 116.594 94.0983 116.806 94.0983 117.019C94.0406 117.232 94.0983 117.444 94.1559 117.71C94.2713 117.976 94.3867 118.242 94.6175 118.561L93.3483 119.252C93.1752 119.358 93.0598 119.358 92.8867 119.252C92.7137 119.199 92.5983 119.039 92.5406 118.933C92.3098 118.614 92.1944 118.242 92.1944 117.87C92.1944 117.498 92.2521 117.179 92.4252 116.806C92.5983 116.434 92.829 116.115 93.1752 115.796C93.5213 115.477 93.9252 115.158 94.4444 114.892C94.9636 114.627 95.4828 114.414 95.9444 114.308C96.4059 114.201 96.8674 114.148 97.2713 114.201C97.6751 114.254 98.0213 114.361 98.3674 114.573C98.7136 114.786 98.9443 115.052 99.1751 115.371C99.2905 115.53 99.2905 115.69 99.2905 115.849C99.2905 116.009 99.2328 116.115 99.0597 116.222L97.7905 116.913C97.5597 116.594 97.3867 116.328 97.1559 116.115C96.9251 115.903 96.7521 115.796 96.5213 115.69C96.2905 115.637 96.0598 115.584 95.829 115.637C95.6559 115.69 95.3675 115.796 95.079 115.956Z" fill="white"/>
<path d="M64.6278 121.248L63.8326 108.776L66.0592 108.612L66.7484 119.224L70.4063 119.006C70.4063 117.419 70.4593 116.052 70.5653 114.903C70.6714 113.754 70.8304 112.769 71.0955 111.949C71.3605 111.128 71.5726 110.472 71.8907 109.925C72.2087 109.378 72.5268 108.995 72.8449 108.721C73.216 108.448 73.5341 108.229 73.9582 108.065C74.3293 107.955 74.7534 107.846 75.1245 107.846C75.8137 107.791 76.1847 107.901 76.1847 108.119L76.2908 109.596L75.6546 109.651C75.3895 109.651 75.1245 109.761 74.8594 109.87C74.5943 109.979 74.3293 110.198 74.0642 110.472C73.7991 110.745 73.5871 111.183 73.375 111.675C73.163 112.168 73.0039 112.824 72.8449 113.645C72.6859 114.465 72.5798 115.45 72.5268 116.599C72.4738 117.747 72.4208 119.115 72.4208 120.701L64.6278 121.248Z" fill="white"/>
<path d="M61.9159 108.611L58.7497 120.29L56.5494 119.709L58.6423 111.993C58.696 111.834 58.7497 111.676 58.8033 111.517C58.857 111.359 58.9107 111.147 59.018 110.989C58.8033 111.253 58.5887 111.464 58.374 111.676C58.374 111.676 58.2667 111.781 57.9983 111.94C57.73 112.099 57.4617 112.363 57.1397 112.627C56.764 112.891 56.3884 113.208 55.9054 113.578C55.476 113.948 54.993 114.318 54.5101 114.688C53.3831 115.534 52.1488 116.538 50.7534 117.648C50.6461 117.753 50.4851 117.859 50.3241 117.912C50.1631 118.018 50.0021 118.018 49.8411 117.965L48.4995 117.595L51.6658 105.915L53.8661 106.497L51.7731 114.213C51.7194 114.371 51.6658 114.53 51.6121 114.688C51.5584 114.847 51.5048 115.058 51.3974 115.217C51.5048 115.058 51.6121 114.952 51.7194 114.847C51.8268 114.741 51.9341 114.635 52.0414 114.53C52.0414 114.53 52.2024 114.424 52.4171 114.265C52.6317 114.107 52.9537 113.843 53.2757 113.578C53.6514 113.314 54.0271 112.997 54.5101 112.627C54.9394 112.257 55.4224 111.887 55.9054 111.517C57.0323 110.672 58.2667 109.668 59.6083 108.558C59.7156 108.452 59.8766 108.346 60.0376 108.293C60.1986 108.188 60.3596 108.188 60.5206 108.241L61.9159 108.611Z" fill="white"/>
<path d="M33.1663 108.797L40.2867 98.2488L42.3374 99.519L39.0335 104.434L44.1032 107.637L47.4071 102.722L49.4577 103.992L42.3374 114.54L40.2867 113.27L43.0779 109.073L38.0082 105.87L35.217 110.067L33.1663 108.797Z" fill="white"/>
<path d="M38.9164 97.6098L29.3141 105.915L27.8576 103.999L34.2232 98.5391C34.331 98.423 34.4929 98.3068 34.6547 98.1906C34.8165 98.0745 34.9784 97.9583 35.1402 97.8422C34.8165 97.9583 34.4929 98.0164 34.2232 98.0164C34.2232 98.0164 34.0613 98.0164 33.7376 98.0164C33.4679 98.0164 33.0903 98.0164 32.6048 98.0745C32.1732 98.0745 31.6338 98.1326 31.0404 98.1326C30.447 98.1326 29.8536 98.1906 29.2602 98.1906C27.8576 98.2487 26.2393 98.3068 24.4591 98.423C24.2972 98.423 24.1354 98.423 23.9196 98.423C23.7578 98.3649 23.596 98.3068 23.4881 98.1326L22.6249 96.971L32.2272 88.6655L33.6837 90.5822L27.3721 96.0998C27.2642 96.2159 27.1024 96.3321 26.9406 96.4483C26.7787 96.5644 26.6169 96.6806 26.4551 96.7967C26.6169 96.7386 26.7787 96.7386 26.9406 96.6806C27.1024 96.6806 27.2642 96.6225 27.3721 96.6225C27.3721 96.6225 27.534 96.6225 27.8576 96.6225C28.1274 96.6225 28.505 96.5644 28.9905 96.5644C29.476 96.5644 29.9615 96.5063 30.5549 96.5063C31.1483 96.5063 31.7417 96.4483 32.3351 96.4483C33.7376 96.3902 35.356 96.3321 37.1362 96.2159C37.298 96.2159 37.4599 96.2159 37.6756 96.2159C37.8375 96.274 37.9993 96.3321 38.1072 96.5063L38.9164 97.6098Z" fill="white"/>
<path d="M31.2497 87.2226L19.6551 91.5405L18.8424 89.3542L26.536 86.5121C26.6986 86.4574 26.8611 86.4028 27.0237 86.3481C27.1862 86.2934 27.4029 86.2388 27.5655 86.1841C27.2404 86.1295 26.9153 86.1295 26.6444 86.0748C26.6444 86.0748 26.4819 86.0202 26.2109 85.9655C25.94 85.8562 25.5608 85.8015 25.1273 85.6376C24.6939 85.5282 24.2063 85.3643 23.6103 85.2003C23.0685 85.0363 22.4725 84.8724 21.8765 84.7084C20.522 84.3258 18.9507 83.8339 17.217 83.342C17.0544 83.2873 16.8919 83.2326 16.7293 83.178C16.5668 83.1233 16.4584 82.9594 16.4043 82.7954L15.9166 81.4836L27.5113 77.1657L28.324 79.352L20.6303 82.1942C20.4678 82.2488 20.3053 82.3035 20.1427 82.3581C19.9802 82.4128 19.7635 82.4674 19.6009 82.5221C19.7635 82.5221 19.926 82.5768 20.0885 82.5768C20.2511 82.5768 20.4136 82.6314 20.522 82.6314C20.522 82.6314 20.6845 82.6861 20.9554 82.7407C21.2263 82.7954 21.6056 82.9047 22.039 83.0687C22.4725 83.178 23.0143 83.342 23.5561 83.5059C24.0979 83.6699 24.6939 83.8339 25.2899 83.9978C26.6444 84.3804 28.2156 84.8724 29.9494 85.3643C30.112 85.4189 30.2745 85.4736 30.437 85.5282C30.5996 85.5829 30.7079 85.7469 30.7621 85.9108L31.2497 87.2226Z" fill="white"/>
<path d="M71.289 84.0735C65.2315 82.5573 60.0226 78.7008 56.8044 73.3496C53.5863 67.9984 52.6217 61.5893 54.1222 55.528C54.5729 53.7173 55.7244 52.1598 57.3235 51.1982C58.9225 50.2365 60.8381 49.9495 62.6488 50.4002C63.0329 50.4927 63.407 50.6228 63.7657 50.7886C64.1164 50.9331 64.452 51.1116 64.7678 51.3217C64.9903 51.4679 65.1708 51.6697 65.2914 51.907C65.412 52.1444 65.4685 52.4091 65.4555 52.675L65.2721 62.0861C65.2668 62.3415 65.1975 62.5914 65.0708 62.8131C64.944 63.0349 64.7637 63.2213 64.5464 63.3555C64.3017 63.5152 64.2832 63.5264 62.2212 64.0218C62.8848 67.5928 64.8086 70.8067 67.6425 73.0786C69.0653 71.4784 69.0839 71.4672 69.3397 71.326C69.5601 71.1969 69.8093 71.1251 70.0646 71.117C70.3199 71.109 70.5731 71.165 70.8012 71.28L79.2 75.5299C79.4312 75.6479 79.6285 75.8228 79.7735 76.0381C79.9184 76.2534 80.0062 76.5021 80.0285 76.7606C80.0661 77.1441 80.0702 77.5301 80.0408 77.9143C80.0077 78.3021 79.9436 78.6868 79.8491 79.0644C79.3729 80.8605 78.2055 82.3953 76.6018 83.3338C74.998 84.2723 73.0881 84.5382 71.289 84.0735ZM61.9099 53.3685C60.8867 53.118 59.806 53.2821 58.9032 53.825C58.0004 54.3679 57.3489 55.2456 57.0905 56.2668C55.7818 61.5412 56.6198 67.1193 59.4204 71.7763C62.2211 76.4334 66.7555 79.7886 72.0279 81.1051C73.0511 81.3557 74.1318 81.1916 75.0346 80.6487C75.9373 80.1058 76.5889 79.2281 76.8472 78.2069L76.9691 77.7171L70.4779 74.4148L69.8443 75.124C68.855 76.249 68.1325 77.0621 67.0114 76.2471C64.7711 74.7546 62.8914 72.7818 61.5089 70.472C60.1263 68.1621 59.2757 65.5734 59.0188 62.8937C58.7726 61.6031 59.9149 61.32 61.3575 60.9698L62.2735 60.7723L62.3997 53.4905L61.9099 53.3685Z" fill="white"/>
</svg>
