<svg width="40" height="37" viewBox="0 0 40 37" fill="none" xmlns="http://www.w3.org/2000/svg">
<path d="M36.9642 0.159459C36.3025 0.0890817 35.5833 0.192713 34.8607 0.479211C33.9649 0.832593 19.928 6.75454 6.84306 12.2789L2.51949 14.1038C0.845304 14.7846 0 15.8918 0 17.3832C0 18.4274 0.440631 19.8437 2.54282 20.6782L9.84078 23.6106C10.4718 25.5093 11.9376 29.9177 12.3058 31.0897C12.5248 31.7845 13.0779 33.5348 14.4754 33.9441C14.7621 34.0419 15.0612 34.0922 15.3658 34.0922C16.2477 34.0922 16.8826 33.6806 17.1932 33.441L21.8317 29.5065L27.4655 34.7317C27.6825 34.9534 28.831 36.0731 30.3738 36.0731C32.2989 36.0731 33.7591 34.466 34.0637 32.9107C34.2289 32.0582 39.6625 4.70219 39.6625 4.70619C40.1502 2.51203 39.2733 1.3738 38.7099 0.888651C38.2272 0.474376 37.6258 0.229835 36.9642 0.159459ZM35.6461 4.47222C34.8956 8.24561 30.8044 28.8423 30.1833 31.8111L21.9483 24.1721L16.3611 28.9177L17.9086 22.8463C17.9086 22.8463 28.5839 12.009 29.2269 11.3781C29.7444 10.873 29.8528 10.6959 29.8528 10.5202C29.8528 10.2866 29.733 10.1186 29.4563 10.1186C29.2074 10.1186 28.8695 10.3577 28.6903 10.4695C26.4142 11.8927 16.7223 17.4303 11.952 20.1518L5.0312 17.3793L8.39052 15.9638C16.9486 12.3501 32.1902 5.9137 35.6461 4.47222Z" fill="white"/>
</svg>
