<svg width="331" height="108" viewBox="0 0 331 108" fill="none" xmlns="http://www.w3.org/2000/svg">
<path d="M20.9714 104.2C20.3714 104.2 19.7714 104 19.3714 103.6C18.8714 103.2 18.5714 102.5 18.5714 101.9C18.3714 95.7 18.2714 89.4 18.0714 83.2C13.0714 76.9 7.97137 70.6 2.97137 64.4C2.47137 63.8 2.27137 63 2.57137 62.3C2.77137 61.6 3.37137 61 4.07137 60.7C9.07137 58.9 14.0714 57.2 19.0714 55.4C19.3714 55.3 19.5714 55.3 19.8714 55.3C20.7714 55.3 21.5714 55.7 21.9714 56.5C24.3714 60.5 26.6714 64.5 28.9714 68.4C31.1714 64.4 33.4714 60.4 35.6714 56.4C36.0714 55.6 36.9714 55.2 37.7714 55.2C38.0714 55.2 38.3714 55.2 38.6714 55.3C42.0714 56.5 45.3714 57.7 48.7714 58.9C49.4714 59.2 49.9714 59.7 50.2714 60.4C50.4714 61.1 50.3714 61.8 49.9714 62.5C45.4714 69.4 40.8714 76.3 36.3714 83.2C36.4714 89 36.5714 94.7 36.6714 100.5C36.6714 101.8 35.7714 102.8 34.4714 102.9C30.0714 103.3 25.5714 103.8 21.1714 104.2C21.1714 104.2 21.0714 104.2 20.9714 104.2Z" fill="white"/>
<path d="M19.8714 57.7C22.9714 62.9 26.0714 68.1 29.0714 73.3C31.9714 68.1 34.8714 62.8 37.8714 57.6C41.2714 58.8 44.5714 60 47.9714 61.2C43.2714 68.3 38.6714 75.4 34.0714 82.5C34.1714 88.5 34.2714 94.5 34.4714 100.5C29.9714 100.9 25.5714 101.4 21.0714 101.8C20.8714 95.3 20.7714 88.8 20.5714 82.3C15.3714 75.8 10.1714 69.4 4.97143 62.9C9.87143 61.2 14.8714 59.4 19.8714 57.7ZM19.7714 52.9C19.2714 52.9 18.6714 53 18.1714 53.2C13.1714 54.9 8.17143 56.7 3.17143 58.5C1.67143 59 0.571429 60.2 0.171429 61.7C-0.228571 63.2 0.0714285 64.8 1.07143 66C5.97143 71.9 10.7714 78 15.6714 84C15.8714 90 15.9714 95.9 16.1714 101.9C16.1714 103.2 16.7714 104.5 17.7714 105.4C18.6714 106.2 19.8714 106.6 21.0714 106.6C21.1714 106.6 21.3714 106.6 21.4714 106.6C25.8714 106.2 30.3714 105.7 34.7714 105.3C37.2714 105.1 39.1714 102.9 39.1714 100.4C39.0714 94.9 38.9714 89.4 38.8714 83.8C43.2714 77.1 47.6714 70.4 52.0714 63.7C52.8714 62.5 53.0714 61 52.5714 59.6C52.0714 58.2 51.0714 57.1 49.6714 56.6C46.2714 55.4 42.9714 54.2 39.5714 53C38.9714 52.8 38.3714 52.7 37.8714 52.7C36.1714 52.7 34.4714 53.6 33.6714 55.2C31.9714 58 30.4714 60.7 28.9714 63.5C27.3714 60.7 25.7714 58 24.0714 55.3C23.1714 53.7 21.4714 52.8 19.7714 52.9Z" fill="#97459A"/>
<path d="M67.5714 105.1C55.4714 105.1 45.5714 94.5 45.4714 81.5C45.4714 72.5 50.0714 64.5 56.9714 60.4H56.4714C55.8714 60.4 55.2714 60.2 54.7714 59.8C54.2714 59.4 53.9714 58.8 53.9714 58.1C53.8714 55.5 53.7714 52.9 53.7714 50.2C53.7714 49.6 53.9714 48.9 54.4714 48.5C54.9714 48 55.5714 47.8 56.1714 47.8C56.1714 47.8 79.6714 47.5 79.7714 47.5C80.4714 47.5 81.0714 47.8 81.5714 48.3C81.9714 48.6 82.1714 49.3 82.1714 50C81.9714 52.4 81.7714 54.9 81.6714 57.3C81.5714 58.5 80.5714 59.5 79.2714 59.5C78.6714 59.5 78.0714 59.5 77.5714 59.6C85.2714 63.4 90.3714 71.7 90.2714 81.4C90.0714 94.5 79.8714 105.1 67.5714 105.1ZM68.0714 75.2C64.3714 75.2 62.0714 78.8 62.0714 82.2C62.0714 85.3 63.0714 89 67.7714 89C71.3714 89 73.0714 85.5 73.0714 82.1C73.1714 78.8 71.3714 75.2 68.0714 75.2Z" fill="white"/>
<path d="M79.6714 49.8C79.4714 52.2 79.2714 54.7 79.1714 57.1C71.5714 57.4 63.9714 57.7 56.3714 58C56.2714 55.4 56.2714 52.8 56.1714 50.1C63.9714 50 71.8714 49.9 79.6714 49.8ZM67.8714 59.7C79.4714 59.7 87.9714 69.5 87.7714 81.4C87.6714 92.8 78.8714 102.7 67.5714 102.7C56.4714 102.7 47.9714 92.9 47.8714 81.5C47.8714 69.8 56.4714 59.7 67.8714 59.7ZM67.8714 91.4C72.7714 91.4 75.5714 87.1 75.5714 82.1C75.5714 77.1 72.5714 72.8 68.0714 72.8C63.0714 72.8 59.6714 77.3 59.6714 82.2C59.6714 87.4 62.2714 91.4 67.8714 91.4ZM79.6714 45C71.7714 45.1 63.9714 45.2 56.0714 45.3C54.7714 45.3 53.4714 45.9 52.5714 46.8C51.6714 47.7 51.1714 49 51.1714 50.2C51.2714 52.8 51.3714 55.4 51.3714 58.1C51.3714 59 51.6714 59.9 52.1714 60.7C46.6714 65.5 42.9714 73 43.0714 81.4C43.1714 95.8 54.1714 107.4 67.5714 107.4C81.2714 107.4 92.4714 95.8 92.6714 81.4C92.7714 72.6 88.9714 64.9 82.9714 60.1C83.5714 59.4 83.9714 58.4 84.0714 57.4C84.2714 55 84.4714 52.6 84.5714 50.2C84.5714 50 84.5714 49.9 84.5714 49.7C84.5714 47.2 82.4714 45 79.6714 45ZM67.8714 86.6C66.6714 86.6 64.5714 86.6 64.5714 82.2C64.5714 79.9 65.8714 77.6 68.0714 77.6C69.7714 77.6 70.7714 79.9 70.7714 82.1C70.7714 82.3 70.6714 86.6 67.8714 86.6Z" fill="#97459A"/>
<path d="M118.671 105.6C118.071 105.6 117.371 105.3 116.971 104.8C113.171 100.4 109.371 96 105.571 91.7C105.471 94.5 105.271 97.2 105.171 100C105.071 101.2 104.171 102.1 103.071 102.3C99.4714 102.7 95.9714 103.1 92.3714 103.5C92.2714 103.5 92.1714 103.5 91.9714 103.5C91.3714 103.5 90.8714 103.3 90.4714 102.9C89.9714 102.5 89.6714 101.8 89.6714 101.1C89.4714 87.3 89.3714 73.4 89.1714 59.6C89.1714 58.3 90.1714 57.2 91.5714 57.2C96.1714 57.1 100.771 56.9 105.371 56.8H105.471C106.171 56.8 106.771 57.1 107.171 57.6C107.671 58.1 107.871 58.8 107.771 59.5C107.571 61.6 107.371 63.6 107.071 65.7C109.671 62.6 112.271 59.5 114.771 56.4C115.271 55.8 115.971 55.5 116.771 55.5C117.271 55.5 117.671 55.7 118.071 55.9C121.171 58.1 124.171 60.2 127.271 62.4C127.771 62.8 128.171 63.4 128.271 64C128.371 64.7 128.171 65.3 127.771 65.8C123.871 70.4 119.971 75.1 116.071 79.7C120.671 84.4 125.371 89.1 129.971 93.9C130.471 94.4 130.671 95 130.671 95.7C130.671 96.4 130.271 97 129.771 97.4C126.571 99.9 123.471 102.5 120.371 105.1C119.871 105.4 119.271 105.6 118.671 105.6Z" fill="white"/>
<path d="M116.671 57.7C119.771 59.9 122.771 62 125.871 64.2C121.471 69.4 117.171 74.6 112.871 79.8C118.071 85 123.171 90.3 128.271 95.5C125.071 98 121.971 100.6 118.871 103.2C113.771 97.3 108.671 91.4 103.471 85.5C103.271 90.2 102.971 95 102.771 99.7C99.1714 100.1 95.6714 100.5 92.0714 100.9C91.8714 87.1 91.7714 73.2 91.5714 59.4C96.1714 59.3 100.771 59.1 105.371 59C104.871 63.7 104.371 68.5 103.871 73.2C108.071 68.1 112.371 62.9 116.671 57.7ZM116.871 52.9C115.371 52.8 113.871 53.4 112.871 54.6C111.971 55.7 110.971 56.9 110.071 58C109.871 57.2 109.471 56.4 108.871 55.7C107.971 54.8 106.771 54.2 105.471 54.2C105.371 54.2 105.271 54.2 105.171 54.2C100.571 54.3 95.9714 54.4 91.3714 54.6C88.6714 54.7 86.5714 56.8 86.6714 59.4C86.8714 73.2 87.0714 87.1 87.1714 100.9C87.1714 102.3 87.7714 103.5 88.7714 104.4C89.5714 105.1 90.6714 105.6 91.7714 105.6C91.9714 105.6 92.2714 105.6 92.4714 105.6C96.0714 105.2 99.5714 104.8 103.171 104.4C105.471 104.1 107.371 102.2 107.471 99.9C107.471 99.1 107.571 98.4 107.571 97.6C110.071 100.5 112.571 103.3 115.071 106.2C115.971 107.3 117.271 107.8 118.571 107.9C119.671 107.9 120.871 107.6 121.771 106.8C124.871 104.2 128.071 101.7 131.171 99.1C132.171 98.3 132.871 97 132.971 95.7C133.071 94.4 132.571 93.1 131.671 92.1C127.571 87.9 123.471 83.7 119.271 79.5C122.671 75.4 126.171 71.3 129.571 67.2C130.471 66.2 130.871 64.9 130.671 63.5C130.471 62.2 129.771 61 128.671 60.2C125.571 58 122.571 55.9 119.471 53.7C118.771 53.3 117.771 53 116.871 52.9Z" fill="#97459A"/>
<path d="M149.371 102.9C137.271 103.1 127.171 92.7 126.871 79.7C126.571 66.4 136.371 55.4 148.771 55.2C161.471 55 171.471 65.4 171.571 78.9C171.671 91.9 161.771 102.7 149.371 102.9ZM149.371 73C145.671 73.1 143.471 76.7 143.571 80.1C143.671 83.2 144.671 86.8 149.471 86.8C153.071 86.7 154.671 83.2 154.671 79.8C154.571 76.5 152.671 72.9 149.371 73Z" fill="white"/>
<path d="M148.871 57.5C160.471 57.3 169.071 66.9 169.171 78.8C169.271 90.2 160.671 100.3 149.371 100.5C138.271 100.7 129.571 91.1 129.271 79.6C129.071 68 137.471 57.7 148.871 57.5ZM149.471 89.2C154.371 89.1 157.071 84.7 157.071 79.8C156.971 74.8 153.971 70.6 149.371 70.6C144.371 70.7 141.071 75.2 141.171 80.2C141.171 85.3 143.871 89.3 149.471 89.2ZM148.771 52.7C134.971 52.9 124.071 65.1 124.471 79.7C124.771 94 136.071 105.5 149.471 105.3C163.171 105.1 174.171 93.2 174.071 78.8C173.971 64 162.871 52.5 148.771 52.7ZM149.371 84.4C148.171 84.4 146.071 84.5 145.971 80.1C145.971 77.8 147.171 75.4 149.371 75.4C151.071 75.4 152.071 77.7 152.171 79.8C152.171 80 152.171 84.4 149.371 84.4Z" fill="#97459A"/>
<path d="M184.471 101.3C180.871 101.2 175.771 100.7 172.871 99.9C171.871 99.6 171.171 98.7 171.171 97.6C171.071 84.7 170.971 71.7 170.871 58.8C170.871 57.7 171.671 56.7 172.671 56.5C176.071 55.7 182.471 55.1 187.471 55.3C200.071 55.6 207.071 60.1 206.871 67.4C206.771 70.4 205.071 73.1 201.771 75.6C207.271 77.8 210.471 81.7 210.271 86C209.971 97.1 197.071 101.6 184.471 101.3ZM186.471 87.7C186.771 87.7 187.071 87.7 187.371 87.8C188.171 87.8 192.371 87.8 192.471 85.9C192.471 85.5 192.471 84.2 189.071 84.2C188.171 84.2 187.271 84.2 186.471 84.4C186.471 85.4 186.471 86.5 186.471 87.7ZM186.471 70.3C187.771 69.9 189.171 69 189.271 68.4C189.271 67.6 187.471 67.6 187.271 67.6C186.971 67.6 186.771 67.6 186.471 67.6C186.471 68.5 186.471 69.4 186.471 70.3Z" fill="white"/>
<path d="M187.471 57.7C196.071 57.9 204.771 60.4 204.471 67.3C204.371 71 200.671 73.9 195.871 76.3C202.371 77.5 208.071 80.9 207.971 85.9C207.671 95.8 195.271 99.3 184.571 99C181.171 98.9 176.171 98.4 173.671 97.7C173.571 84.8 173.471 71.8 173.371 58.9C176.571 58 182.771 57.5 187.471 57.7ZM185.171 72.9C187.371 73 191.571 71.3 191.671 68.5C191.771 66.2 189.571 65.3 187.271 65.2C186.071 65.2 184.971 65.4 183.971 65.7C183.971 68.1 183.971 70.4 183.971 72.8C184.371 72.8 184.771 72.9 185.171 72.9ZM187.371 90.1C190.771 90.2 194.871 89.4 194.971 85.9C195.071 82.8 192.271 81.8 189.171 81.7C187.271 81.6 185.371 82 184.071 82.4C184.071 84.8 184.071 87.3 184.071 89.7C184.871 89.9 186.071 90.1 187.371 90.1ZM187.571 52.9C182.271 52.8 175.771 53.3 172.071 54.2C169.871 54.7 168.371 56.7 168.371 58.9C168.471 71.8 168.571 84.8 168.771 97.7C168.771 99.8 170.171 101.7 172.271 102.3C175.471 103.2 180.771 103.7 184.471 103.8C198.271 104.1 212.371 98.9 212.771 86.1C212.871 81.7 210.471 77.8 206.071 75C207.871 73 209.271 70.5 209.371 67.5C209.671 58.7 201.471 53.2 187.571 52.9Z" fill="#97459A"/>
<path d="M221.071 103.2C220.971 103.2 220.771 103.2 220.571 103.2C216.471 102.4 212.371 101.6 208.271 100.9C207.571 100.8 206.971 100.4 206.671 99.8C206.271 99.2 206.271 98.5 206.471 97.9C210.771 84.1 215.171 70.4 219.671 56.6C219.971 55.6 220.971 54.9 221.971 54.9C221.971 54.9 233.771 55.3 233.771 55.4C234.771 55.4 235.671 56.1 235.971 57C240.771 70.1 245.571 83.2 250.271 96.3C250.471 96.9 250.471 97.6 250.171 98.2C249.871 98.8 249.271 99.2 248.671 99.4C244.671 100.5 240.671 101.6 236.771 102.7C236.571 102.8 236.371 102.8 236.071 102.8C235.071 102.8 234.071 102.1 233.771 101.1C233.171 99 232.471 96.8 231.871 94.7C229.571 94.8 227.171 95 224.871 95.1C224.371 97.2 223.871 99.4 223.471 101.5C223.171 102.5 222.171 103.2 221.071 103.2ZM227.571 82.2C227.771 82.2 228.071 82.2 228.271 82.2C228.171 81.8 228.071 81.4 227.871 81C227.771 81.4 227.671 81.8 227.571 82.2Z" fill="white"/>
<path d="M221.971 57.2C225.871 57.3 229.771 57.5 233.671 57.7C238.471 70.8 243.271 83.9 248.071 97C244.071 98.1 240.071 99.2 236.171 100.3C235.371 97.5 234.571 94.8 233.771 92C230.171 92.2 226.571 92.4 222.971 92.7C222.371 95.4 221.771 98.1 221.171 100.8C217.071 100 212.971 99.2 208.871 98.4C213.171 84.7 217.471 71 221.971 57.2ZM224.471 84.8C226.771 84.7 229.171 84.5 231.471 84.4C230.171 80.2 228.971 75.9 227.671 71.7C226.571 76 225.471 80.4 224.471 84.8ZM221.971 52.4C219.871 52.4 217.971 53.7 217.271 55.7C212.871 69.4 208.471 83.2 204.171 97C203.771 98.3 203.971 99.7 204.671 100.9C205.371 102.1 206.571 102.9 207.871 103.1C211.971 103.9 216.071 104.7 220.171 105.4C220.471 105.5 220.771 105.5 221.071 105.5C223.271 105.5 225.271 104 225.771 101.8C226.071 100.3 226.471 98.7 226.771 97.2C227.871 97.1 228.971 97.1 230.071 97C230.571 98.5 230.971 100.1 231.471 101.6C232.071 103.7 233.971 105 236.071 105.1C236.471 105.1 236.971 105 237.371 104.9C241.371 103.8 245.271 102.7 249.271 101.6C250.571 101.2 251.671 100.4 252.271 99.2C252.871 98 252.971 96.6 252.571 95.4C247.871 82.3 243.071 69.2 238.271 56C237.571 54.2 235.871 52.9 233.871 52.8C229.971 52.6 226.071 52.5 222.171 52.3C222.071 52.4 222.071 52.4 221.971 52.4Z" fill="#97459A"/>
<path d="M262.271 101.9C258.671 101.8 253.572 101.4 250.672 100.6C249.672 100.3 248.972 99.4 248.872 98.3C248.672 85.4 248.472 72.5 248.172 59.5C248.172 58.4 248.872 57.4 249.972 57.1C253.372 56.2 259.771 55.6 264.771 55.7C277.372 55.9 284.472 60.3 284.271 67.6C284.172 70.6 282.572 73.3 279.172 75.8C284.672 78 287.871 81.8 287.771 86.2C287.771 97.4 274.872 102.1 262.271 101.9ZM264.172 88.2C264.472 88.2 264.772 88.2 265.072 88.2C265.872 88.2 270.072 88.2 270.172 86.3C270.172 85.9 270.171 84.6 266.771 84.6C265.872 84.6 264.972 84.7 264.172 84.8C264.172 86 264.172 87.1 264.172 88.2ZM263.972 70.9C265.272 70.5 266.672 69.6 266.672 69C266.672 68.2 264.872 68.2 264.672 68.2C264.372 68.2 264.172 68.2 263.872 68.2C263.972 69.1 263.972 70 263.972 70.9Z" fill="white"/>
<path d="M264.871 58.2C273.471 58.3 282.171 60.7 281.971 67.6C281.871 71.3 278.271 74.2 273.371 76.7C279.871 77.8 285.671 81.2 285.471 86.2C285.271 96.1 272.971 99.7 262.271 99.5C258.871 99.4 253.871 99 251.271 98.3C251.071 85.4 250.871 72.5 250.671 59.5C253.971 58.7 260.171 58.1 264.871 58.2ZM262.671 73.5C264.871 73.5 269.071 71.8 269.071 69C269.071 66.7 266.971 65.8 264.671 65.7C263.471 65.7 262.371 65.9 261.371 66.2C261.371 68.6 261.471 70.9 261.471 73.3C261.971 73.4 262.271 73.5 262.671 73.5ZM265.071 90.7C268.471 90.8 272.571 89.9 272.571 86.4C272.671 83.3 269.771 82.3 266.771 82.2C264.871 82.2 262.971 82.5 261.671 83C261.671 85.4 261.671 87.9 261.671 90.3C262.571 90.5 263.771 90.6 265.071 90.7ZM264.971 53.4C259.671 53.3 253.171 53.9 249.571 54.9C247.371 55.5 245.871 57.4 245.871 59.6C246.071 72.5 246.371 85.4 246.571 98.4C246.571 100.5 248.071 102.3 250.071 102.9C253.271 103.8 258.571 104.3 262.271 104.3C276.071 104.5 290.071 99.1 290.471 86.3C290.571 81.9 288.071 78 283.671 75.3C285.471 73.3 286.871 70.8 286.971 67.7C287.071 59.1 278.871 53.7 264.971 53.4Z" fill="#97459A"/>
<path d="M298.971 101.6C298.371 101.6 297.671 101.3 297.271 100.8C296.871 100.3 296.571 99.7 296.671 99.1C296.871 94 297.071 88.8 297.271 83.7C292.671 77.7 288.071 71.8 283.471 65.9C283.071 65.4 282.871 64.7 282.971 64.1C283.071 63.4 283.471 62.9 283.971 62.5C287.671 60 291.471 57.5 295.271 55.1C295.671 54.8 296.171 54.7 296.671 54.7C296.871 54.7 296.971 54.7 297.171 54.7C297.771 54.8 298.371 55.2 298.771 55.7C301.471 59.8 304.271 63.8 306.971 67.9C308.971 64.1 311.071 60.2 313.171 56.4C313.571 55.6 314.471 55.1 315.371 55.1C315.671 55.1 315.971 55.2 316.171 55.3C319.771 56.7 323.371 58 326.971 59.4C327.671 59.7 328.171 60.2 328.371 60.8C328.571 61.5 328.571 62.2 328.171 62.8C323.971 69.7 319.871 76.7 315.671 83.7C315.671 89 315.671 94.3 315.671 99.7C315.671 100.3 315.371 101 314.971 101.4C314.471 101.8 313.871 102.1 313.271 102.1C313.171 102 298.971 101.6 298.971 101.6Z" fill="white"/>
<path d="M296.671 57C300.171 62.2 303.671 67.4 307.071 72.6C309.771 67.6 312.471 62.5 315.171 57.5C318.771 58.9 322.371 60.2 325.971 61.6C321.671 68.7 317.371 75.9 313.171 83C313.171 88.5 313.171 94.1 313.171 99.6C308.471 99.4 303.771 99.3 298.971 99.2C299.171 93.8 299.471 88.3 299.671 82.9C294.971 76.7 290.171 70.5 285.371 64.4C289.171 61.9 292.871 59.4 296.671 57ZM296.671 52.2C295.671 52.2 294.771 52.5 293.871 53C290.071 55.5 286.371 57.9 282.571 60.4C281.471 61.1 280.671 62.3 280.471 63.6C280.271 64.9 280.571 66.2 281.371 67.3C285.771 73 290.271 78.7 294.671 84.5C294.471 89.4 294.271 94.2 294.071 99.1C293.971 100.4 294.471 101.6 295.371 102.6C296.271 103.5 297.471 104.1 298.771 104.1C303.471 104.2 308.171 104.4 312.971 104.5H313.071C314.371 104.5 315.571 104 316.471 103.2C317.371 102.3 317.971 101.1 317.971 99.8C317.971 94.7 317.971 89.6 317.971 84.5C321.971 77.7 326.071 71 330.171 64.2C330.871 63 331.071 61.5 330.571 60.2C330.071 58.9 329.071 57.8 327.771 57.3C324.171 55.9 320.571 54.6 316.971 53.2C316.371 53 315.871 52.9 315.271 52.9C313.471 52.9 311.771 53.8 310.871 55.5C309.471 58.1 308.071 60.8 306.671 63.4C304.671 60.5 302.771 57.5 300.771 54.6C300.071 53.5 298.971 52.8 297.671 52.5C297.371 52.2 297.071 52.2 296.671 52.2Z" fill="#97459A"/>
<path d="M11.4638 36.706L6.99224 36.269L5.41207 11.1207L13.8509 10.5827L13.0104 24.4009L20.0035 11.0534L27.8371 11.1879L26.8957 36.3026L20.0371 36.0336L20.306 23.1233L11.4638 36.706ZM45.3301 27.2586L45.2965 36.8405C44.3215 36.975 43.4137 37.0086 42.506 37.0086C33.6301 37.0086 29.6629 31.0914 29.6629 24.8715C29.6629 18.0129 34.4706 10.7845 42.8086 10.7845C43.4137 10.7845 44.0189 10.8181 44.6241 10.8853L45.2965 19.4586C44.893 19.425 44.4896 19.3914 44.1198 19.3914C39.6482 19.3914 37.7318 22.0474 37.7318 24.6026C37.7318 26.8888 40.1525 27.7965 42.4387 27.7965C43.5482 27.7965 44.4896 27.6284 45.3301 27.2586ZM66.9012 36.269L59.3029 35.9328L60.2779 16.5336L54.5624 17.1388L54.9995 36.4371L48.6452 36.1681L46.8296 11.5577L67.6072 11.0534L66.9012 36.269ZM81.7894 36.975C74.8972 36.975 69.6523 30.8897 69.6523 23.7284C69.6523 16.4664 74.9308 10.1793 81.8903 10.1793C88.9842 10.1793 94.1955 16.1974 94.1955 23.6276C94.1955 30.7215 88.7825 36.975 81.7894 36.975ZM81.9575 29.9483C84.9834 29.9483 86.698 27.225 86.698 24.1319C86.698 21.0388 84.8489 18.3491 82.0584 18.3491C78.9989 18.3491 76.9144 21.1396 76.9144 24.2327C76.9144 27.4603 78.4946 29.9483 81.9575 29.9483ZM98.1719 26.6871L97.634 11.6922L118.176 11.0534L117.571 36.4034L109.872 36.2017L110.847 16.5336L104.93 17.1052L105.232 28.2672C105.232 33.2431 103.249 36.9078 96.0538 36.9078L95.5831 31.394C97.6003 31.2931 98.2728 29.8138 98.1719 26.6871ZM140.118 36.269L132.52 35.9328L133.024 26.0483L127.981 27.1578L128.216 36.4371L121.862 36.1681L120.047 12.062L127.578 11.1207L127.813 20.669L133.293 20.5008L133.798 10.6164L140.824 11.0534L140.118 36.269ZM148.215 36.5043L143.374 36.4371L143.811 10.2802L151.409 10.6836L150.568 21.0052L157.595 10.2802L163.613 10.7508L163.58 36.269L155.074 36.5716L155.881 23.1233L148.215 36.5043ZM208.758 35.8319L200.487 36.2017L199.31 22.5181L195.007 33.5121L192.048 34.0164L188.585 23.2241L186.03 36.6724L179.07 35.025L184.416 10.4819L189.695 10.3138L193.964 22.7534L199.075 10.381L204.656 10.9526L208.758 35.8319ZM226.823 34.8569L211.256 37.3112L209.945 11.8267L226.184 10.2465L226.318 18.3827L216.165 19.156L216.299 22.1483L224.604 21.4086L224.906 26.1155L216.636 26.9896L216.77 30.3517L226.352 29.175L226.823 34.8569ZM249.319 36.8405L242.023 37.1431L242.527 26.519C241.182 28.3681 239.3 29.2422 237.383 29.2422C232.441 29.2422 228.205 24.8379 228.205 16.0965C228.205 14.7853 228.339 12.3983 228.507 10.8517L236.173 10.7845C235.904 12.7681 235.669 16.0293 235.669 17.6095C235.669 20.4672 236.375 22.4172 238.762 22.4172C241.855 22.4172 243.065 19.2569 243.233 10.8853L250.394 10.7845L249.319 36.8405ZM264.637 37.1431L257.577 36.4371L257.745 18.0129L252.265 18.1474L251.592 11.9276L271.059 10.7172L271.092 17.4414L265.747 17.6767L264.637 37.1431ZM298.265 13.7095L279.303 37.5466L273.319 33.2431L281.085 24.9388L271.201 14.55L277.925 9.64136L285.288 19.7612L292.146 10.0448L298.265 13.7095ZM327.692 27.2586L327.658 36.8405C326.683 36.975 325.775 37.0086 324.867 37.0086C315.992 37.0086 312.024 31.0914 312.024 24.8715C312.024 18.0129 316.832 10.7845 325.17 10.7845C325.775 10.7845 326.38 10.8181 326.986 10.8853L327.658 19.4586C327.255 19.425 326.851 19.3914 326.481 19.3914C322.01 19.3914 320.093 22.0474 320.093 24.6026C320.093 26.8888 322.514 27.7965 324.8 27.7965C325.91 27.7965 326.851 27.6284 327.692 27.2586Z" fill="#97459A"/>
</svg>
