<svg width="454" height="114" viewBox="0 0 454 114" fill="none" xmlns="http://www.w3.org/2000/svg">
<path d="M20.9714 59.2C20.3714 59.2 19.7714 59 19.3714 58.6C18.8714 58.2 18.5714 57.5 18.5714 56.9C18.3714 50.7 18.2714 44.4 18.0714 38.2C13.0714 31.9 7.97143 25.6 2.97143 19.4C2.47144 18.8 2.27143 18 2.57143 17.3C2.77143 16.6 3.37143 16 4.07143 15.7C9.07143 13.9 14.0714 12.2 19.0714 10.4C19.3714 10.3 19.5714 10.3 19.8714 10.3C20.7714 10.3 21.5714 10.7 21.9714 11.5C24.3714 15.5 26.6714 19.5 28.9714 23.4C31.1714 19.4 33.4714 15.4 35.6714 11.4C36.0714 10.6 36.9714 10.2 37.7714 10.2C38.0714 10.2 38.3714 10.2 38.6714 10.3C42.0714 11.5 45.3714 12.7 48.7714 13.9C49.4714 14.2 49.9714 14.7 50.2714 15.4C50.4714 16.1 50.3714 16.8 49.9714 17.5C45.4714 24.4 40.8714 31.3 36.3714 38.2C36.4714 44 36.5714 49.7 36.6714 55.5C36.6714 56.8 35.7714 57.8 34.4714 57.9C30.0714 58.3 25.5714 58.8 21.1714 59.2C21.1714 59.2 21.0714 59.2 20.9714 59.2Z" fill="white"/>
<path d="M19.8714 12.7C22.9714 17.9 26.0714 23.1 29.0714 28.3C31.9714 23.1 34.8714 17.8 37.8714 12.6C41.2714 13.8 44.5714 15 47.9714 16.2C43.2714 23.3 38.6714 30.4 34.0714 37.5C34.1714 43.5 34.2714 49.5 34.4714 55.5C29.9714 55.9 25.5714 56.4 21.0714 56.8C20.8714 50.3 20.7714 43.8 20.5714 37.3C15.3714 30.8 10.1714 24.4 4.97143 17.9C9.87143 16.2 14.8714 14.4 19.8714 12.7ZM19.7714 7.90001C19.2714 7.90001 18.6714 8.00001 18.1714 8.20001C13.1714 9.90001 8.17143 11.7 3.17143 13.5C1.67143 14 0.571429 15.2 0.171429 16.7C-0.228571 18.2 0.0714285 19.8 1.07143 21C5.97143 26.9 10.7714 33 15.6714 39C15.8714 45 15.9714 50.9 16.1714 56.9C16.1714 58.2 16.7714 59.5 17.7714 60.4C18.6714 61.2 19.8714 61.6 21.0714 61.6C21.1714 61.6 21.3714 61.6 21.4714 61.6C25.8714 61.2 30.3714 60.7 34.7714 60.3C37.2714 60.1 39.1714 57.9 39.1714 55.4C39.0714 49.9 38.9714 44.4 38.8714 38.8C43.2714 32.1 47.6714 25.4 52.0714 18.7C52.8714 17.5 53.0714 16 52.5714 14.6C52.0714 13.2 51.0714 12.1 49.6714 11.6C46.2714 10.4 42.9714 9.20001 39.5714 8.00001C38.9714 7.80001 38.3714 7.70001 37.8714 7.70001C36.1714 7.70001 34.4714 8.60001 33.6714 10.2C31.9714 13 30.4714 15.7 28.9714 18.5C27.3714 15.7 25.7714 13 24.0714 10.3C23.1714 8.70001 21.4714 7.80001 19.7714 7.90001Z" fill="#97459A"/>
<path d="M67.5714 60.1C55.4714 60.1 45.5714 49.5 45.4714 36.5C45.4714 27.5 50.0714 19.5 56.9714 15.4H56.4714C55.8714 15.4 55.2714 15.2 54.7714 14.8C54.2714 14.4 53.9714 13.8 53.9714 13.1C53.8714 10.5 53.7714 7.9 53.7714 5.2C53.7714 4.6 53.9714 3.9 54.4714 3.5C54.9714 3 55.5714 2.8 56.1714 2.8C56.1714 2.8 79.6714 2.5 79.7714 2.5C80.4714 2.5 81.0714 2.8 81.5714 3.3C81.9714 3.6 82.1714 4.3 82.1714 5C81.9714 7.4 81.7714 9.9 81.6714 12.3C81.5714 13.5 80.5714 14.5 79.2714 14.5C78.6714 14.5 78.0714 14.5 77.5714 14.6C85.2714 18.4 90.3714 26.7 90.2714 36.4C90.0714 49.5 79.8714 60.1 67.5714 60.1ZM68.0714 30.2C64.3714 30.2 62.0714 33.8 62.0714 37.2C62.0714 40.3 63.0714 44 67.7714 44C71.3714 44 73.0714 40.5 73.0714 37.1C73.1714 33.8 71.3714 30.2 68.0714 30.2Z" fill="white"/>
<path d="M79.6714 4.8C79.4714 7.2 79.2714 9.7 79.1714 12.1C71.5714 12.4 63.9714 12.7 56.3714 13C56.2714 10.4 56.2714 7.8 56.1714 5.1C63.9714 5 71.8714 4.9 79.6714 4.8ZM67.8714 14.7C79.4714 14.7 87.9714 24.5 87.7714 36.4C87.6714 47.8 78.8714 57.7 67.5714 57.7C56.4714 57.7 47.9714 47.9 47.8714 36.5C47.8714 24.8 56.4714 14.7 67.8714 14.7ZM67.8714 46.4C72.7714 46.4 75.5714 42.1 75.5714 37.1C75.5714 32.1 72.5714 27.8 68.0714 27.8C63.0714 27.8 59.6714 32.3 59.6714 37.2C59.6714 42.4 62.2714 46.4 67.8714 46.4ZM79.6714 0C71.7714 0.1 63.9714 0.2 56.0714 0.3C54.7714 0.3 53.4714 0.9 52.5714 1.8C51.6714 2.7 51.1714 4 51.1714 5.2C51.2714 7.8 51.3714 10.4 51.3714 13.1C51.3714 14 51.6714 14.9 52.1714 15.7C46.6714 20.5 42.9714 28 43.0714 36.4C43.1714 50.8 54.1714 62.4 67.5714 62.4C81.2714 62.4 92.4714 50.8 92.6714 36.4C92.7714 27.6 88.9714 19.9 82.9714 15.1C83.5714 14.4 83.9714 13.4 84.0714 12.4C84.2714 10 84.4714 7.6 84.5714 5.2C84.5714 5 84.5714 4.9 84.5714 4.7C84.5714 2.2 82.4714 0 79.6714 0ZM67.8714 41.6C66.6714 41.6 64.5714 41.6 64.5714 37.2C64.5714 34.9 65.8714 32.6 68.0714 32.6C69.7714 32.6 70.7714 34.9 70.7714 37.1C70.7714 37.3 70.6714 41.6 67.8714 41.6Z" fill="#97459A"/>
<path d="M118.671 60.6C118.071 60.6 117.371 60.3 116.971 59.8C113.171 55.4 109.371 51 105.571 46.7C105.471 49.5 105.271 52.2 105.171 55C105.071 56.2 104.171 57.1 103.071 57.3C99.4714 57.7 95.9714 58.1 92.3714 58.5C92.2714 58.5 92.1714 58.5 91.9714 58.5C91.3714 58.5 90.8714 58.3 90.4714 57.9C89.9714 57.5 89.6714 56.8 89.6714 56.1C89.4714 42.3 89.3714 28.4 89.1714 14.6C89.1714 13.3 90.1714 12.2 91.5714 12.2C96.1714 12.1 100.771 11.9 105.371 11.8H105.471C106.171 11.8 106.771 12.1 107.171 12.6C107.671 13.1 107.871 13.8 107.771 14.5C107.571 16.6 107.371 18.6 107.071 20.7C109.671 17.6 112.271 14.5 114.771 11.4C115.271 10.8 115.971 10.5 116.771 10.5C117.271 10.5 117.671 10.7 118.071 10.9C121.171 13.1 124.171 15.2 127.271 17.4C127.771 17.8 128.171 18.4 128.271 19C128.371 19.7 128.171 20.3 127.771 20.8C123.871 25.4 119.971 30.1 116.071 34.7C120.671 39.4 125.371 44.1 129.971 48.9C130.471 49.4 130.671 50 130.671 50.7C130.671 51.4 130.271 52 129.771 52.4C126.571 54.9 123.471 57.5 120.371 60.1C119.871 60.4 119.271 60.6 118.671 60.6Z" fill="white"/>
<path d="M116.671 12.7C119.771 14.9 122.771 17 125.871 19.2C121.471 24.4 117.171 29.6 112.871 34.8C118.071 40 123.171 45.3 128.271 50.5C125.071 53 121.971 55.6 118.871 58.2C113.771 52.3 108.671 46.4 103.471 40.5C103.271 45.2 102.971 50 102.771 54.7C99.1714 55.1 95.6714 55.5 92.0714 55.9C91.8714 42.1 91.7714 28.2 91.5714 14.4C96.1714 14.3 100.771 14.1 105.371 14C104.871 18.7 104.371 23.5 103.871 28.2C108.071 23.1 112.371 17.9 116.671 12.7ZM116.871 7.89997C115.371 7.79997 113.871 8.39997 112.871 9.59997C111.971 10.7 110.971 11.9 110.071 13C109.871 12.2 109.471 11.4 108.871 10.7C107.971 9.79997 106.771 9.19997 105.471 9.19997C105.371 9.19997 105.271 9.19997 105.171 9.19997C100.571 9.29997 95.9714 9.39997 91.3714 9.59997C88.6714 9.69997 86.5714 11.8 86.6714 14.4C86.8714 28.2 87.0714 42.1 87.1714 55.9C87.1714 57.3 87.7714 58.5 88.7714 59.4C89.5714 60.1 90.6714 60.6 91.7714 60.6C91.9714 60.6 92.2714 60.6 92.4714 60.6C96.0714 60.2 99.5714 59.8 103.171 59.4C105.471 59.1 107.371 57.2 107.471 54.9C107.471 54.1 107.571 53.4 107.571 52.6C110.071 55.5 112.571 58.3 115.071 61.2C115.971 62.3 117.271 62.8 118.571 62.9C119.671 62.9 120.871 62.6 121.771 61.8C124.871 59.2 128.071 56.7 131.171 54.1C132.171 53.3 132.871 52 132.971 50.7C133.071 49.4 132.571 48.1 131.671 47.1C127.571 42.9 123.471 38.7 119.271 34.5C122.671 30.4 126.171 26.3 129.571 22.2C130.471 21.2 130.871 19.9 130.671 18.5C130.471 17.2 129.771 16 128.671 15.2C125.571 13 122.571 10.9 119.471 8.69997C118.771 8.29997 117.771 7.99997 116.871 7.89997Z" fill="#97459A"/>
<path d="M149.371 57.9C137.271 58.1 127.171 47.7 126.871 34.7C126.571 21.4 136.371 10.4 148.771 10.2C161.471 10 171.471 20.4 171.571 33.9C171.671 46.9 161.771 57.7 149.371 57.9ZM149.371 28C145.671 28.1 143.471 31.7 143.571 35.1C143.671 38.2 144.671 41.8 149.471 41.8C153.071 41.7 154.671 38.2 154.671 34.8C154.571 31.5 152.671 27.9 149.371 28Z" fill="white"/>
<path d="M148.871 12.5C160.471 12.3 169.071 21.9 169.171 33.8C169.271 45.2 160.671 55.3 149.371 55.5C138.271 55.7 129.571 46.1 129.271 34.6C129.071 23 137.471 12.7 148.871 12.5ZM149.471 44.2C154.371 44.1 157.071 39.7 157.071 34.8C156.971 29.8 153.971 25.6 149.371 25.6C144.371 25.7 141.071 30.2 141.171 35.2C141.171 40.3 143.871 44.3 149.471 44.2ZM148.771 7.70002C134.971 7.90002 124.071 20.1 124.471 34.7C124.771 49 136.071 60.5 149.471 60.3C163.171 60.1 174.171 48.2 174.071 33.8C173.971 19 162.871 7.50002 148.771 7.70002ZM149.371 39.4C148.171 39.4 146.071 39.5 145.971 35.1C145.971 32.8 147.171 30.4 149.371 30.4C151.071 30.4 152.071 32.7 152.171 34.8C152.171 35 152.171 39.4 149.371 39.4Z" fill="#97459A"/>
<path d="M184.471 56.3C180.871 56.2 175.771 55.7 172.871 54.9C171.871 54.6 171.171 53.7 171.171 52.6C171.071 39.7 170.971 26.7 170.871 13.8C170.871 12.7 171.671 11.7 172.671 11.5C176.071 10.7 182.471 10.1 187.471 10.3C200.071 10.6 207.071 15.1 206.871 22.4C206.771 25.4 205.071 28.1 201.771 30.6C207.271 32.8 210.471 36.7 210.271 41C209.971 52.1 197.071 56.6 184.471 56.3ZM186.471 42.7C186.771 42.7 187.071 42.7 187.371 42.8C188.171 42.8 192.371 42.8 192.471 40.9C192.471 40.5 192.471 39.2 189.071 39.2C188.171 39.2 187.271 39.2 186.471 39.4C186.471 40.4 186.471 41.5 186.471 42.7ZM186.471 25.3C187.771 24.9 189.171 24 189.271 23.4C189.271 22.6 187.471 22.6 187.271 22.6C186.971 22.6 186.771 22.6 186.471 22.6C186.471 23.5 186.471 24.4 186.471 25.3Z" fill="white"/>
<path d="M187.471 12.7C196.071 12.9 204.771 15.4 204.471 22.3C204.371 26 200.671 28.9 195.871 31.3C202.371 32.5 208.071 35.9 207.971 40.9C207.671 50.8 195.271 54.3 184.571 54C181.171 53.9 176.171 53.4 173.671 52.7C173.571 39.8 173.471 26.8 173.371 13.9C176.571 13 182.771 12.5 187.471 12.7ZM185.171 27.9C187.371 28 191.571 26.3 191.671 23.5C191.771 21.2 189.571 20.3 187.271 20.2C186.071 20.2 184.971 20.4 183.971 20.7C183.971 23.1 183.971 25.4 183.971 27.8C184.371 27.8 184.771 27.9 185.171 27.9ZM187.371 45.1C190.771 45.2 194.871 44.4 194.971 40.9C195.071 37.8 192.271 36.8 189.171 36.7C187.271 36.6 185.371 37 184.071 37.4C184.071 39.8 184.071 42.3 184.071 44.7C184.871 44.9 186.071 45.1 187.371 45.1ZM187.571 7.90001C182.271 7.80001 175.771 8.30001 172.071 9.20001C169.871 9.70001 168.371 11.7 168.371 13.9C168.471 26.8 168.571 39.8 168.771 52.7C168.771 54.8 170.171 56.7 172.271 57.3C175.471 58.2 180.771 58.7 184.471 58.8C198.271 59.1 212.371 53.9 212.771 41.1C212.871 36.7 210.471 32.8 206.071 30C207.871 28 209.271 25.5 209.371 22.5C209.671 13.7 201.471 8.20001 187.571 7.90001Z" fill="#97459A"/>
<path d="M221.071 58.2C220.971 58.2 220.771 58.2 220.571 58.2C216.471 57.4 212.371 56.6 208.271 55.9C207.571 55.8 206.971 55.4 206.671 54.8C206.271 54.2 206.271 53.5 206.471 52.9C210.771 39.1 215.171 25.4 219.671 11.6C219.971 10.6 220.971 9.89999 221.971 9.89999C221.971 9.89999 233.771 10.3 233.771 10.4C234.771 10.4 235.671 11.1 235.971 12C240.771 25.1 245.571 38.2 250.271 51.3C250.471 51.9 250.471 52.6 250.171 53.2C249.871 53.8 249.271 54.2 248.671 54.4C244.671 55.5 240.671 56.6 236.771 57.7C236.571 57.8 236.371 57.8 236.071 57.8C235.071 57.8 234.071 57.1 233.771 56.1C233.171 54 232.471 51.8 231.871 49.7C229.571 49.8 227.171 50 224.871 50.1C224.371 52.2 223.871 54.4 223.471 56.5C223.171 57.5 222.171 58.2 221.071 58.2ZM227.571 37.2C227.771 37.2 228.071 37.2 228.271 37.2C228.171 36.8 228.071 36.4 227.871 36C227.771 36.4 227.671 36.8 227.571 37.2Z" fill="white"/>
<path d="M221.971 12.2C225.871 12.3 229.771 12.5 233.671 12.7C238.471 25.8 243.271 38.9 248.071 52C244.071 53.1 240.071 54.2 236.171 55.3C235.371 52.5 234.571 49.8 233.771 47C230.171 47.2 226.571 47.4 222.971 47.7C222.371 50.4 221.771 53.1 221.171 55.8C217.071 55 212.971 54.2 208.871 53.4C213.171 39.7 217.471 26 221.971 12.2ZM224.471 39.8C226.771 39.7 229.171 39.5 231.471 39.4C230.171 35.2 228.971 30.9 227.671 26.7C226.571 31 225.471 35.4 224.471 39.8ZM221.971 7.39999C219.871 7.39999 217.971 8.69999 217.271 10.7C212.871 24.4 208.471 38.2 204.171 52C203.771 53.3 203.971 54.7 204.671 55.9C205.371 57.1 206.571 57.9 207.871 58.1C211.971 58.9 216.071 59.7 220.171 60.4C220.471 60.5 220.771 60.5 221.071 60.5C223.271 60.5 225.271 59 225.771 56.8C226.071 55.3 226.471 53.7 226.771 52.2C227.871 52.1 228.971 52.1 230.071 52C230.571 53.5 230.971 55.1 231.471 56.6C232.071 58.7 233.971 60 236.071 60.1C236.471 60.1 236.971 60 237.371 59.9C241.371 58.8 245.271 57.7 249.271 56.6C250.571 56.2 251.671 55.4 252.271 54.2C252.871 53 252.971 51.6 252.571 50.4C247.871 37.3 243.071 24.2 238.271 11C237.571 9.19999 235.871 7.89999 233.871 7.79999C229.971 7.59999 226.071 7.49999 222.171 7.29999C222.071 7.39999 222.071 7.39999 221.971 7.39999Z" fill="#97459A"/>
<path d="M262.271 56.9C258.671 56.8 253.571 56.4 250.671 55.6C249.671 55.3 248.971 54.4 248.871 53.3C248.671 40.4 248.471 27.5 248.171 14.5C248.171 13.4 248.871 12.4 249.971 12.1C253.371 11.2 259.771 10.6 264.771 10.7C277.371 10.9 284.471 15.3 284.271 22.6C284.171 25.6 282.571 28.3 279.171 30.8C284.671 33 287.871 36.8 287.771 41.2C287.771 52.4 274.871 57.1 262.271 56.9ZM264.171 43.2C264.471 43.2 264.771 43.2 265.071 43.2C265.871 43.2 270.071 43.2 270.171 41.3C270.171 40.9 270.171 39.6 266.771 39.6C265.871 39.6 264.971 39.7 264.171 39.8C264.171 41 264.171 42.1 264.171 43.2ZM263.971 25.9C265.271 25.5 266.671 24.6 266.671 24C266.671 23.2 264.871 23.2 264.671 23.2C264.371 23.2 264.171 23.2 263.871 23.2C263.971 24.1 263.971 25 263.971 25.9Z" fill="white"/>
<path d="M264.871 13.2C273.471 13.3 282.171 15.7 281.971 22.6C281.871 26.3 278.271 29.2 273.371 31.7C279.871 32.8 285.671 36.2 285.471 41.2C285.271 51.1 272.971 54.7 262.271 54.5C258.871 54.4 253.871 54 251.271 53.3C251.071 40.4 250.871 27.5 250.671 14.5C253.971 13.7 260.171 13.1 264.871 13.2ZM262.671 28.5C264.871 28.5 269.071 26.8 269.071 24C269.071 21.7 266.971 20.8 264.671 20.7C263.471 20.7 262.371 20.9 261.371 21.2C261.371 23.6 261.471 25.9 261.471 28.3C261.971 28.4 262.271 28.5 262.671 28.5ZM265.071 45.7C268.471 45.8 272.571 44.9 272.571 41.4C272.671 38.3 269.771 37.3 266.771 37.2C264.871 37.2 262.971 37.5 261.671 38C261.671 40.4 261.671 42.9 261.671 45.3C262.571 45.5 263.771 45.6 265.071 45.7ZM264.971 8.39999C259.671 8.29999 253.171 8.89999 249.571 9.89999C247.371 10.5 245.871 12.4 245.871 14.6C246.071 27.5 246.371 40.4 246.571 53.4C246.571 55.5 248.071 57.3 250.071 57.9C253.271 58.8 258.571 59.3 262.271 59.3C276.071 59.5 290.071 54.1 290.471 41.3C290.571 36.9 288.071 33 283.671 30.3C285.471 28.3 286.871 25.8 286.971 22.7C287.071 14.1 278.871 8.69999 264.971 8.39999Z" fill="#97459A"/>
<path d="M298.971 56.6C298.371 56.6 297.671 56.3 297.271 55.8C296.871 55.3 296.571 54.7 296.671 54.1C296.871 49 297.071 43.8 297.271 38.7C292.671 32.7 288.071 26.8 283.471 20.9C283.071 20.4 282.871 19.7 282.971 19.1C283.071 18.4 283.471 17.9 283.971 17.5C287.671 15 291.471 12.5 295.271 10.1C295.671 9.80001 296.171 9.70001 296.671 9.70001C296.871 9.70001 296.971 9.70001 297.171 9.70001C297.771 9.80001 298.371 10.2 298.771 10.7C301.471 14.8 304.271 18.8 306.971 22.9C308.971 19.1 311.071 15.2 313.171 11.4C313.571 10.6 314.471 10.1 315.371 10.1C315.671 10.1 315.971 10.2 316.171 10.3C319.771 11.7 323.371 13 326.971 14.4C327.671 14.7 328.171 15.2 328.371 15.8C328.571 16.5 328.571 17.2 328.171 17.8C323.971 24.7 319.871 31.7 315.671 38.7C315.671 44 315.671 49.3 315.671 54.7C315.671 55.3 315.371 56 314.971 56.4C314.471 56.8 313.871 57.1 313.271 57.1C313.171 57 298.971 56.6 298.971 56.6Z" fill="white"/>
<path d="M296.671 12C300.171 17.2 303.671 22.4 307.071 27.6C309.771 22.6 312.471 17.5 315.171 12.5C318.771 13.9 322.371 15.2 325.971 16.6C321.671 23.7 317.371 30.9 313.171 38C313.171 43.5 313.171 49.1 313.171 54.6C308.471 54.4 303.771 54.3 298.971 54.2C299.171 48.8 299.471 43.3 299.671 37.9C294.971 31.7 290.171 25.5 285.371 19.4C289.171 16.9 292.871 14.4 296.671 12ZM296.671 7.20001C295.671 7.20001 294.771 7.50001 293.871 8.00001C290.071 10.5 286.371 12.9 282.571 15.4C281.471 16.1 280.671 17.3 280.471 18.6C280.271 19.9 280.571 21.2 281.371 22.3C285.771 28 290.271 33.7 294.671 39.5C294.471 44.4 294.271 49.2 294.071 54.1C293.971 55.4 294.471 56.6 295.371 57.6C296.271 58.5 297.471 59.1 298.771 59.1C303.471 59.2 308.171 59.4 312.971 59.5H313.071C314.371 59.5 315.571 59 316.471 58.2C317.371 57.3 317.971 56.1 317.971 54.8C317.971 49.7 317.971 44.6 317.971 39.5C321.971 32.7 326.071 26 330.171 19.2C330.871 18 331.071 16.5 330.571 15.2C330.071 13.9 329.071 12.8 327.771 12.3C324.171 10.9 320.571 9.60001 316.971 8.20001C316.371 8.00001 315.871 7.90001 315.271 7.90001C313.471 7.90001 311.771 8.80001 310.871 10.5C309.471 13.1 308.071 15.8 306.671 18.4C304.671 15.5 302.771 12.5 300.771 9.60001C300.071 8.50001 298.971 7.80001 297.671 7.50001C297.371 7.20001 297.071 7.20001 296.671 7.20001Z" fill="#97459A"/>
<path d="M452.885 63.269L445.287 62.9328L445.791 53.0483L440.748 54.1578L440.983 63.4371L434.629 63.1681L432.813 39.0621L440.344 38.1207L440.58 47.669L446.06 47.5009L446.564 37.6164L453.591 38.0534L452.885 63.269Z" fill="#97459A"/>
<path d="M431.734 61.8569L416.167 64.3112L414.856 38.8267L431.095 37.2465L431.229 45.3827L421.076 46.156L421.211 49.1483L429.515 48.4086L429.817 53.1155L421.547 53.9896L421.681 57.3517L431.263 56.175L431.734 61.8569Z" fill="#97459A"/>
<path d="M412.172 63.269L404.574 62.9328L405.078 53.0483L400.035 54.1578L400.271 63.4371L393.916 63.1681L392.101 39.0621L399.632 38.1207L399.867 47.669L405.347 47.5009L405.852 37.6164L412.878 38.0534L412.172 63.269Z" fill="#97459A"/>
<path d="M391.021 61.8569L375.455 64.3112L374.144 38.8267L390.382 37.2465L390.517 45.3827L380.363 46.156L380.498 49.1483L388.802 48.4086L389.105 53.1155L380.834 53.9896L380.969 57.3517L390.55 56.175L391.021 61.8569Z" fill="#97459A"/>
<path d="M372.956 62.8319L364.685 63.2017L363.509 49.5181L359.205 60.5121L356.247 61.0164L352.784 50.2241L350.229 63.6724L343.269 62.025L348.615 37.4819L353.893 37.3138L358.163 49.7534L363.273 37.381L368.854 37.9526L372.956 62.8319Z" fill="#97459A"/>
<path d="M410.148 110.143L403.088 109.437L403.256 91.0129L397.776 91.1474L397.103 84.9276L416.57 83.7172L416.603 90.4414L411.258 90.6767L410.148 110.143Z" fill="#97459A"/>
<path d="M397.145 107.924L389.782 110.042L388.236 104.898L381.579 105.369L380.469 110.446L372.871 109L380.906 83.2465L388.068 83.4819L397.145 107.924ZM386.824 100.158L384.437 92.2569L382.52 100.427L386.824 100.158Z" fill="#97459A"/>
<path d="M372.14 113.102L365.147 112.833L365.315 109.034L351.161 108.597L351.262 113.034H344.168L343.798 103.116H347.194L354.456 83.4819L361.617 83.5827L368.375 103.083L372.342 103.049L372.14 113.102ZM358.087 90.5758L354.388 103.116L361.449 103.083L358.087 90.5758Z" fill="#97459A"/>
<path d="M341.215 109.269L333.617 108.933L334.121 99.0483L329.078 100.158L329.313 109.437L322.959 109.168L321.143 85.0621L328.674 84.1207L328.91 93.669L334.39 93.5009L334.894 83.6164L341.921 84.0534L341.215 109.269Z" fill="#97459A"/>
<path d="M321.047 86.7095L302.085 110.547L296.101 106.243L303.867 97.9388L293.983 87.55L300.707 82.6414L308.07 92.7612L314.928 83.0448L321.047 86.7095Z" fill="#97459A"/>
<path d="M281.726 109.841L274.901 109.807L274.262 85.1293C276.716 84.1543 279.473 83.8181 282.398 83.8181C289.022 83.8181 293.93 86.5414 293.93 91.7526C293.93 97.7707 289.694 101.973 281.491 102.343L281.726 109.841ZM281.154 90.7776L281.322 96.7957C281.625 96.8293 281.928 96.8293 282.197 96.8293C285.861 96.8293 287.946 94.8457 287.946 93.0638C287.946 91.6181 286.635 90.3741 283.777 90.3741C282.869 90.3741 281.928 90.5086 281.154 90.7776Z" fill="#97459A"/>
<path d="M260.166 109.975C253.274 109.975 248.029 103.89 248.029 96.7284C248.029 89.4664 253.307 83.1793 260.267 83.1793C267.361 83.1793 272.572 89.1974 272.572 96.6276C272.572 103.722 267.159 109.975 260.166 109.975ZM260.334 102.948C263.36 102.948 265.074 100.225 265.074 97.1319C265.074 94.0388 263.225 91.3491 260.435 91.3491C257.375 91.3491 255.291 94.1396 255.291 97.2327C255.291 100.46 256.871 102.948 260.334 102.948Z" fill="#97459A"/>
<path d="M207.791 99.1491L207.657 103.116C208.396 103.318 209.203 103.419 210.044 103.419C212.196 103.419 214.179 102.545 214.179 100.393C214.179 99.0483 212.633 98.5776 210.985 98.5776C209.809 98.5776 208.598 98.7793 207.791 99.1491ZM200.462 84.1207H208.262L207.959 93.131C209.809 92.7276 211.422 92.5595 212.868 92.5595C220.466 92.5595 222.349 96.0897 222.349 99.2836C222.349 105.201 216.97 109.605 206.984 109.605C205.102 109.605 203.252 109.37 201.471 108.933L200.462 84.1207ZM231.931 109.168L224.165 109.471L224.703 83.7508L232.536 83.6164L231.931 109.168Z" fill="#97459A"/>
<path d="M198.521 113.102L191.528 112.833L191.696 109.034L177.541 108.597L177.642 113.034H170.548L170.178 103.116H173.574L180.836 83.4819L187.997 83.5827L194.755 103.083L198.722 103.049L198.521 113.102ZM184.467 90.5758L180.769 103.116L187.829 103.083L184.467 90.5758Z" fill="#97459A"/>
<path d="M167.595 109.269L159.997 108.933L160.501 99.0483L155.458 100.158L155.694 109.437L149.339 109.168L147.524 85.0621L155.055 84.1207L155.29 93.669L160.77 93.5009L161.275 83.6164L168.301 84.0534L167.595 109.269Z" fill="#97459A"/>
<path d="M120.916 99.1491L120.781 103.116C121.521 103.318 122.328 103.419 123.168 103.419C125.32 103.419 127.304 102.545 127.304 100.393C127.304 99.0483 125.757 98.5776 124.11 98.5776C122.933 98.5776 121.723 98.7793 120.916 99.1491ZM113.587 84.1207H121.387L121.084 93.131C122.933 92.7276 124.547 92.5595 125.993 92.5595C133.591 92.5595 135.474 96.0897 135.474 99.2836C135.474 105.201 130.094 109.605 120.109 109.605C118.226 109.605 116.377 109.37 114.595 108.933L113.587 84.1207ZM145.056 109.168L137.289 109.471L137.827 83.7508L145.661 83.6164L145.056 109.168Z" fill="#97459A"/>
<path d="M91.2075 99.6871L90.6696 84.6922L111.212 84.0534L110.607 109.403L102.908 109.202L103.883 89.5336L97.9653 90.1052L98.2679 101.267C98.2679 106.243 96.2842 109.908 89.0894 109.908L88.6187 104.394C90.636 104.293 91.3084 102.814 91.2075 99.6871Z" fill="#97459A"/>
<path d="M73.4996 109.336L66.2712 107.891L72.2557 98.2078C69.297 96.1905 67.5824 93.8707 67.5824 91.0465C67.5824 85.6672 73.3988 83.65 79.7867 83.65C82.241 83.65 84.7962 83.919 87.116 84.4569L86.4772 108.63L79.2152 109.538L79.9212 101.973C79.1143 101.704 78.0721 101.301 77.1643 100.797L73.4996 109.336ZM80.6608 96.0897L81.4005 89.9707C80.4255 89.6681 78.9798 89.3319 77.6686 89.3319C75.9539 89.3319 74.5083 89.9371 74.5083 91.8534C74.5083 93.9716 77.2652 95.5517 80.6608 96.0897Z" fill="#97459A"/>
<path d="M40.7055 99.1491L40.5711 103.116C41.3107 103.318 42.1176 103.419 42.9581 103.419C45.1099 103.419 47.0935 102.545 47.0935 100.393C47.0935 99.0483 45.5469 98.5776 43.8995 98.5776C42.7228 98.5776 41.5124 98.7793 40.7055 99.1491ZM33.3762 84.1207H41.1762L40.8736 93.131C42.7228 92.7276 44.3366 92.5595 45.7823 92.5595C53.3806 92.5595 55.2633 96.0897 55.2633 99.2836C55.2633 105.201 49.884 109.605 39.8986 109.605C38.0159 109.605 36.1667 109.37 34.3848 108.933L33.3762 84.1207ZM64.8452 109.168L57.0788 109.471L57.6168 83.7508L65.4504 83.6164L64.8452 109.168Z" fill="#97459A"/>
<path d="M32.7692 105.907L27.1209 110.916L17.2364 100.259L17.1019 109.134L10.5123 110.109L9.4364 84.2215L17.8416 83.7172L17.2028 92.5931L24.7674 82.6414L30.5502 86.4741L22.9183 96.4931L32.7692 105.907Z" fill="#97459A"/>
</svg>
