<svg width="63" height="59" viewBox="0 0 63 59" fill="none" xmlns="http://www.w3.org/2000/svg">
<path d="M56.8952 39.3487H56.2518C55.7799 39.3487 55.3938 39.687 55.308 40.11C52.9916 50.4718 42.9536 58 31.5 58C20.0464 58 10.0084 50.4718 7.69198 40.11C7.60619 39.6447 7.17722 39.3487 6.74824 39.3487H6.10478C3.27356 39.3487 1 37.1071 1 34.3581C1 31.609 3.27356 29.3675 6.10478 29.3675H7.3917C7.82068 29.3675 8.20675 29.1137 8.33544 28.6908C11.4669 19.3017 20.8186 13 31.4571 13C31.7574 13 32.0148 13 32.3151 13C32.744 13.0846 33.173 13.1269 33.6449 13.1269C33.6878 13.1269 33.7736 13.1269 33.8165 13.1269C43.4684 13.9727 51.6617 20.0207 54.6646 28.7331C54.7932 29.1137 55.1793 29.4098 55.6083 29.4098H56.8952C59.7264 29.4098 62 31.6513 62 34.4004C62 37.1071 59.6835 39.3487 56.8952 39.3487Z" fill="#FBECE8"/>
<path d="M56.1431 28.2608H55.5613C52.0706 19.2669 42.9697 13.1511 32.4558 12.8313C29.3806 12.3117 27.0534 9.75339 27.0534 6.67547C27.0534 3.99729 29.2975 1.83875 32.0818 1.83875C34.2012 1.83875 35.905 3.47764 35.905 5.51626C35.905 7.03523 34.6168 8.27439 33.0376 8.27439C31.874 8.27439 30.9182 7.35501 30.9182 6.23577C30.9182 5.71612 30.5026 5.3164 29.9624 5.3164C29.4222 5.3164 29.0066 5.71612 29.0066 6.23577C29.0066 8.35434 30.7935 10.0732 33.0376 10.0732C35.6972 10.0732 37.8166 8.03455 37.8166 5.47629C37.8582 2.47832 35.2817 0 32.0818 0C28.2586 0 25.1418 2.99797 25.1418 6.6355C25.1418 9.19377 26.3885 11.4722 28.3417 12.9512C18.7836 14.0305 10.6801 19.8665 7.43865 28.2209H6.85686C3.0752 28.2608 0 31.2188 0 34.8164C0 38.414 2.99208 41.332 6.73219 41.3719C9.47493 51.645 19.781 59 31.5 59C43.219 59 53.5251 51.605 56.2678 41.3719C60.0079 41.292 63 38.374 63 34.8164C63 31.1789 59.9248 28.2608 56.1431 28.2608ZM56.1431 39.5332H55.5198C55.0627 39.5332 54.6887 39.853 54.6055 40.2527C52.3615 50.0461 42.6372 57.1612 31.5416 57.1612C20.4459 57.1612 10.7216 50.0461 8.47757 40.2527C8.39446 39.813 7.97889 39.5332 7.56332 39.5332H6.93997C4.19723 39.5332 1.99472 37.4146 1.99472 34.8164C1.99472 32.2182 4.19723 30.0996 6.93997 30.0996H8.18668C8.60224 30.0996 8.97625 29.8598 9.10092 29.46C12.1346 20.586 21.1939 14.6301 31.5 14.6301C31.7909 14.6301 32.0402 14.6301 32.3311 14.6301C32.7467 14.71 33.1623 14.75 33.6194 14.75C33.6609 14.75 33.7441 14.75 33.7856 14.75C43.1359 15.5495 51.0732 21.2656 53.9822 29.5C54.1069 29.8598 54.4809 30.1396 54.8964 30.1396H56.1431C58.8859 30.1396 61.0884 32.2581 61.0884 34.8564C61.0884 37.4146 58.8443 39.5332 56.1431 39.5332Z" fill="#533B2A"/>
<path d="M18 41C18 42.6479 16.6667 44 15 44C13.3333 44 12 42.6479 12 41C12 39.3521 13.3333 38 15 38C16.6667 38 18 39.3099 18 41Z" fill="#F5C4DD"/>
<path d="M50 41C50 42.6479 48.6667 44 47 44C45.3333 44 44 42.6479 44 41C44 39.3521 45.3333 38 47 38C48.6667 38 50 39.3099 50 41Z" fill="#F5C4DD"/>
<path d="M24 34C24 35.122 23.0952 36 22 36C20.9048 36 20 35.122 20 34C20 32.878 20.9048 32 22 32C23.0952 32 24 32.878 24 34Z" fill="#4D3627"/>
<path d="M43 34.0009C43 35.1224 42.3133 36 41.4819 36C40.6506 36 40 35.1224 40 34.0009C40 32.8795 40.6867 32.0018 41.4819 32.0018C42.3494 31.9531 43 32.8795 43 34.0009Z" fill="#4D3627"/>
<path d="M28.6783 37.9982C28.5549 37.9982 28.4315 37.9654 28.3081 37.9C27.979 37.7364 27.8967 37.4091 28.1435 37.1473C28.2258 37.0164 29.1719 36.0019 30.5295 36.0019C31.3933 35.9692 32.1749 36.3619 32.8743 37.1473C33.08 37.3764 33.0388 37.7364 32.7097 37.9C32.4218 38.0636 31.9693 38.0309 31.7636 37.7691C31.3522 37.3109 30.9408 37.0818 30.5295 37.0818C29.8301 37.0818 29.2542 37.7691 29.2542 37.7691C29.1308 37.9327 28.884 37.9982 28.6783 37.9982Z" fill="#4D3627"/>
<path d="M31.236 48C21.3822 48 20.016 40.9027 20.016 40.8596C19.9332 40.4725 20.1816 40.0854 20.5542 40.0424C20.9268 39.9563 21.2994 40.2144 21.3408 40.6016C21.3822 40.8596 22.5829 46.5805 31.236 46.5805C38.5642 46.5805 40.5929 40.7306 40.6757 40.4725C40.8 40.0854 41.1726 39.9133 41.5452 40.0424C41.9178 40.1714 42.0834 40.5585 41.9592 40.9457C41.9592 41.0317 39.5993 48 31.236 48Z" fill="#4D3627"/>
<path d="M8.29219 38C7.89433 38 7.54069 37.6036 7.54069 37.1577C7.54069 33.9866 4.97674 33.6893 4.6673 33.6398C4.26945 33.5902 3.96001 33.1939 4.00421 32.7479C4.04842 32.302 4.40206 31.9552 4.79992 32.0047C6.25871 32.1038 9.04369 33.3425 8.99948 37.1577C8.99948 37.6532 8.69004 38 8.29219 38Z" fill="#4D3627"/>
<path d="M5.74745 38C5.39477 38 5.08617 37.7394 5.04209 37.3919C4.90983 36.3495 5.08617 35.5243 5.6152 34.8728C6.23239 34.091 7.11409 34.0041 7.20227 34.0041C7.59903 33.9607 7.95171 34.2647 7.9958 34.6556C8.03989 35.0465 7.73129 35.394 7.33452 35.4374C7.29044 35.4374 6.98184 35.4809 6.71733 35.7849C6.4969 36.0889 6.40873 36.5667 6.4969 37.1748C6.54099 37.5657 6.27647 37.9131 5.87971 38C5.79154 38 5.74745 38 5.74745 38Z" fill="#4D3627"/>
<path d="M53.752 38C53.3542 38 53.0447 37.6503 53.0005 37.2006C52.9563 33.3537 55.7413 32.1047 57.2001 32.0048C57.5979 31.9548 57.9516 32.3045 57.9958 32.7542C58.04 33.2038 57.7306 33.6035 57.3327 33.6535C57.0233 33.7034 54.4593 34.0032 54.4593 37.2006C54.4593 37.6503 54.1499 38 53.752 38Z" fill="#4D3627"/>
<path d="M57.2116 38C57.1675 38 57.1675 38 57.1233 38C56.726 37.957 56.4611 37.6133 56.5052 37.1836C56.5935 36.5391 56.5053 36.0665 56.2404 35.7657C56.0196 35.465 55.6664 35.422 55.6664 35.422C55.2691 35.379 54.9601 35.0353 55.0042 34.6486C55.0484 34.2619 55.4015 33.9611 55.7989 34.0041C55.8872 34.0041 56.7701 34.09 57.3882 34.8634C57.8738 35.465 58.0946 36.3243 57.9621 37.3555C57.8738 37.7422 57.5648 38 57.2116 38Z" fill="#4D3627"/>
</svg>
