<svg width="118" height="35" viewBox="0 0 118 35" fill="none" xmlns="http://www.w3.org/2000/svg">
<path d="M11.1059 19.5929L11.0661 13.0382L15.9998 5.38422L12.4984 4.04071L9.39498 9.69975L6.25174 4L0.999756 5.79135L6.33132 12.916L6.41089 20L11.1059 19.5929Z" fill="white"/>
<path d="M6.32676 21C6.16067 21 5.99458 20.9155 5.87002 20.831C5.74545 20.7042 5.6624 20.5352 5.6624 20.324L5.57936 13.2255L0.139896 6.04253C0.0153279 5.87352 -0.026196 5.62 0.0153266 5.40874C0.0983718 5.19747 0.22294 5.02846 0.430553 4.94395L5.91154 3.04258C6.24372 2.91582 6.5759 3.08483 6.74199 3.3806L9.39944 8.23967L12.0569 3.42286C12.223 3.12709 12.5967 3.00033 12.8873 3.12709L16.5413 4.52143C16.7489 4.60593 16.8735 4.77494 16.9566 4.94395C17.0396 5.11297 16.9981 5.36648 16.8735 5.53549L11.8493 13.31L11.8908 19.8592C11.8908 20.2394 11.6001 20.5352 11.268 20.5775L6.36829 21C6.36829 21 6.36828 21 6.32676 21ZM1.8008 5.91577L6.78351 12.5072C6.86656 12.634 6.90808 12.7607 6.90808 12.9297L6.99113 19.5212L10.5205 19.2254L10.479 13.0987C10.479 12.972 10.5205 12.8452 10.6036 12.7185L15.2956 5.49324L13.0119 4.60593L10.0638 9.97203C9.93923 10.1833 9.73162 10.3101 9.48248 10.3101C9.23335 10.3101 9.02574 10.1833 8.90117 9.97203L5.91154 4.56368L1.8008 5.91577Z" fill="#4D3627"/>
<path d="M27.9285 3.62208L28.0881 1L19.9513 1.12102L20.0311 3.9448L27.9285 3.62208ZM24.0197 15.966C22.0653 15.966 21.1479 14.5138 21.1479 12.6582C21.1479 10.8832 22.3445 9.26964 24.0596 9.26964C25.655 9.26964 26.6921 10.8025 26.6921 12.6178C26.7319 14.3928 25.7348 15.966 24.0197 15.966ZM23.9399 20C27.9285 20 30.9998 16.4098 30.9998 12.2951C30.9998 8.01911 28.0482 4.5499 23.9798 4.5499C20.0311 4.5499 16.9998 8.18047 16.9998 12.3355C17.0396 16.4904 19.9912 20 23.9399 20Z" fill="white"/>
<path d="M23.8959 21C19.5322 21 15.9998 17.1667 15.9998 12.4167C15.9998 8.79167 17.9946 5.70833 20.8621 4.375L19.8647 4.41667C19.6985 4.41667 19.4907 4.375 19.366 4.25C19.2413 4.125 19.1582 3.95833 19.1582 3.75L19.0751 0.833333C19.0751 0.666667 19.1582 0.458333 19.2829 0.333333C19.4076 0.208333 19.5738 0.125 19.7816 0.125L28.2595 0C28.4673 0 28.6335 0.0833333 28.7582 0.208333C28.8829 0.333333 28.966 0.541665 28.966 0.708332L28.7998 3.41667C28.7582 3.75 28.5089 4.04167 28.1348 4.04167L26.6387 4.08333C29.7972 5.25 31.9998 8.45833 31.9998 12.3333C31.9582 17.1667 28.3426 21 23.8959 21ZM23.9374 5.08333C20.3218 5.08333 17.3712 8.375 17.3712 12.4583C17.3712 16.4167 20.2803 19.6667 23.8959 19.6667C27.5946 19.6667 30.5868 16.4167 30.5868 12.4167C30.5452 8.20833 27.7192 5.08333 23.9374 5.08333ZM20.4465 1.5L20.4881 3.04167L27.4283 2.75L27.5114 1.375L20.4465 1.5ZM23.979 16.8333C21.6933 16.8333 20.2803 15.25 20.2803 12.75C20.2803 10.4167 21.9426 8.54167 24.0205 8.54167C25.9738 8.54167 27.4699 10.3333 27.4699 12.6667C27.4699 15.0833 26.0153 16.8333 23.979 16.8333ZM24.0621 9.95833C22.566 9.95833 21.6933 11.375 21.6933 12.75C21.6933 13.75 21.9842 15.4583 23.979 15.4583C25.4335 15.4583 26.0985 14.0417 26.0985 12.6667C26.0985 11.375 25.392 9.95833 24.0621 9.95833Z" fill="#4D3627"/>
<path d="M45.9998 18.005L40.0718 12.3102L44.6544 6.27791L41.207 4L36.6664 9.99007L37.0448 4.63275L31.9998 4.92804L32.6304 20.536L36.5823 19.9454L36.6664 14.5881L42.5943 21L45.9998 18.005Z" fill="white"/>
<path d="M42.6837 22C42.5093 22 42.2913 21.913 42.1605 21.7825L37.2341 16.4754L37.1905 20.2165C37.1905 20.5645 36.9289 20.869 36.5801 20.9125L32.482 21.5215C32.2641 21.565 32.0897 21.478 31.9153 21.3475C31.7409 21.217 31.6537 21.043 31.6537 20.8255L30.9998 4.73034C30.9998 4.33883 31.3049 3.99083 31.6973 3.99083L36.9289 3.68633C37.1469 3.68633 37.3213 3.72983 37.4957 3.90383C37.6265 4.03433 37.7137 4.25183 37.7137 4.46933L37.4957 7.55786L40.7218 3.29482C40.9398 2.99032 41.3758 2.90332 41.681 3.12082L45.2995 5.51334C45.4739 5.64384 45.5611 5.81785 45.6047 5.99185C45.6483 6.16585 45.6047 6.38335 45.4739 6.55735L41.1142 12.2559L46.7818 17.65C46.9126 17.7805 46.9998 17.998 46.9998 18.172C46.9998 18.3895 46.9126 18.5635 46.7382 18.694L43.2068 21.826C43.0325 21.9565 42.8581 22 42.6837 22ZM36.5365 13.9524C36.7545 13.9524 36.9289 14.0394 37.0597 14.1699L42.7273 20.26L45.1251 18.1285L39.5447 12.8214C39.2831 12.5604 39.2395 12.1689 39.4575 11.8644L43.73 6.25285L41.3322 4.68684L37.0161 10.3419C36.8417 10.6029 36.4929 10.6899 36.1878 10.5594C35.8826 10.4289 35.7082 10.1679 35.7082 9.81989L36.057 5.12184L32.3513 5.33934L32.9616 19.912L35.6646 19.5205L35.7518 14.6049C35.7518 14.3004 35.9262 14.0394 36.2314 13.9524C36.3622 13.9524 36.4493 13.9524 36.5365 13.9524Z" fill="#4D3627"/>
<path d="M53.5639 15.8225C51.4698 15.8225 50.4869 14.3185 50.4869 12.3969C50.4869 10.5587 51.769 8.88773 53.6066 8.88773C55.316 8.88773 56.4271 10.4752 56.4271 12.3551C56.4271 14.1932 55.4015 15.8225 53.5639 15.8225ZM53.4357 20C57.7092 20 60.9998 16.282 60.9998 12.0209C60.9998 7.59269 57.8374 4 53.4784 4C49.2476 4 45.9998 7.75979 45.9998 12.0627C46.0425 16.3655 49.2476 20 53.4357 20Z" fill="white"/>
<path d="M53.4408 21C49.3287 21 45.9998 17.0192 45.9998 12.0865C45.9998 7.06731 49.3678 3 53.48 3C57.7097 3 60.9994 6.98077 60.9994 12.0433C61.0386 17.0192 57.6314 21 53.4408 21ZM53.5192 4.47115C50.1119 4.47115 47.3313 7.88942 47.3313 12.1298C47.3313 16.2404 50.0728 19.6154 53.48 19.6154C56.9656 19.6154 59.7853 16.2404 59.7853 12.0865C59.7462 7.71634 57.0439 4.47115 53.5192 4.47115ZM53.5583 16.6731C51.4043 16.6731 50.0728 15.0288 50.0728 12.4327C50.0728 10.0096 51.6393 8.0625 53.5975 8.0625C55.4382 8.0625 56.8481 9.92308 56.8481 12.3462C56.8481 14.8558 55.4382 16.6731 53.5583 16.6731ZM53.5975 9.53365C52.1876 9.53365 51.3652 11.0048 51.3652 12.4327C51.3652 13.4712 51.6393 15.2452 53.5192 15.2452C54.8899 15.2452 55.5165 13.774 55.5165 12.3462C55.5557 11.0048 54.8507 9.53365 53.5975 9.53365Z" fill="#4D3627"/>
<path d="M66.1227 13.9674C66.6276 13.8043 67.3007 13.6413 68.0159 13.6413C69.1519 13.6413 70.2036 14.0082 70.2036 15.1087C70.2036 16.3723 68.6891 16.6984 67.4269 16.6984C66.9221 16.6984 66.5014 16.6576 66.2069 16.5761L66.1227 13.9674ZM65.9124 7.93478C66.291 7.8125 66.6697 7.73098 67.1324 7.73098C67.9739 7.73098 68.7732 8.05707 68.7732 8.87228C68.7732 9.8913 67.2587 10.5435 66.4172 10.5435C66.2489 10.5435 66.1227 10.5435 65.9965 10.5027L65.9124 7.93478ZM62.3784 19.5924C63.346 19.837 65.1972 20 66.4593 20C70.4561 20 74.9998 18.6141 74.9998 15.0272C74.9998 13.1929 72.8541 12.0516 70.4561 11.6848C72.2231 10.7473 73.5273 9.64674 73.5273 8.30163C73.5273 5.81522 70.3299 5 67.1745 5C65.4496 5 63.1777 5.24457 61.9998 5.52989L62.3784 19.5924Z" fill="white"/>
<path d="M66.3788 21C64.9793 21 63.0114 20.8725 61.9618 20.575C61.6557 20.49 61.4371 20.235 61.4371 19.9375L60.9998 5.275C60.9998 4.935 61.2184 4.68 61.5245 4.595C62.7928 4.255 65.198 4 67.1222 4C71.8015 4 74.4691 5.53 74.4691 8.165C74.4691 9.3125 73.7694 10.375 72.37 11.395C74.6003 12.1175 75.9998 13.52 75.9998 15.1775C75.956 19.1725 71.1455 21 66.3788 21ZM62.8365 19.3C63.8423 19.47 65.3292 19.555 66.3788 19.555C69.3963 19.555 74.5129 18.62 74.5129 15.05C74.5129 13.52 72.4575 12.5425 70.4021 12.245C70.096 12.2025 69.8336 11.99 69.7898 11.6925C69.7461 11.395 69.8773 11.0975 70.1397 10.97C72.0202 9.9925 72.9823 9.015 72.9823 8.08C72.9823 5.53 68.4779 5.3175 67.0785 5.3175C65.5479 5.3175 63.6674 5.4875 62.4429 5.7425L62.8365 19.3ZM67.3846 17.6425C66.9473 17.6425 66.4662 17.6 65.9852 17.515C65.6353 17.4725 65.4167 17.175 65.4167 16.835L65.3729 14.0725C65.3729 13.775 65.5479 13.52 65.854 13.3925C66.51 13.1375 67.2971 13.01 68.0406 13.01C69.921 13.01 71.0143 13.86 71.0143 15.2625C70.9706 16.75 69.6149 17.6425 67.3846 17.6425ZM66.7723 16.1975C66.9473 16.1975 67.1659 16.24 67.3409 16.24C67.9968 16.24 69.4837 16.155 69.4837 15.2625C69.4837 15.05 69.4837 14.455 67.9531 14.455C67.5595 14.455 67.1222 14.4975 66.7286 14.5825L66.7723 16.1975ZM66.335 11.14C66.1164 11.14 65.9852 11.0975 65.854 11.0975H65.8103C65.4604 11.055 65.198 10.7575 65.198 10.4175L65.1105 7.74C65.1105 7.4425 65.2855 7.1875 65.5916 7.06C66.0726 6.89 66.5974 6.805 67.1222 6.805C68.6091 6.805 69.5275 7.57 69.5275 8.7175C69.5275 10.29 67.4721 11.14 66.335 11.14ZM66.5537 8.25L66.5974 9.695C67.2097 9.5675 68.0406 9.1425 68.0406 8.675C68.0406 8.2075 67.3409 8.165 67.0785 8.165C66.9035 8.2075 66.7286 8.2075 66.5537 8.25Z" fill="#4D3627"/>
<path d="M83.6021 13.9537L80.9652 14.1183L82.1323 9.30591L83.6021 13.9537ZM89.9998 18.5193L84.3802 4.16453L79.9709 4L74.9998 19.1362L79.6683 20L80.36 17.0386L84.4666 16.7506L85.4176 19.7532L89.9998 18.5193Z" fill="white"/>
<path d="M79.5723 21C79.5275 21 79.4827 21 79.4379 21L74.5997 20.1043C74.3757 20.0616 74.1965 19.9336 74.1069 19.763C74.0173 19.5924 73.9725 19.3791 74.0173 19.2085L79.1691 3.51185C79.2587 3.21327 79.5723 3 79.8858 3L84.4552 3.12796C84.7688 3.12796 85.0376 3.29858 85.1272 3.59716L90.9509 18.4834C91.0405 18.654 90.9957 18.8673 90.9061 19.0379C90.8165 19.2085 90.6373 19.3365 90.4581 19.3791L85.7544 20.6588C85.3512 20.7867 84.948 20.5735 84.8584 20.1896L84.0521 17.5877L80.9162 17.8009L80.3338 20.3602C80.1994 20.7867 79.8858 21 79.5723 21ZM75.6748 18.8673L78.9899 19.4645L79.5275 17.0332C79.6171 16.7346 79.8858 16.5213 80.1994 16.4787L84.4552 16.1801C84.8136 16.1374 85.1272 16.3507 85.2168 16.6919L85.9784 19.1659L89.2038 18.2701L83.8281 4.53555L80.289 4.40758L75.6748 18.8673ZM80.8714 14.9005C80.6474 14.9005 80.4682 14.8152 80.289 14.6445C80.1546 14.4739 80.065 14.2607 80.1546 14.0474L81.3642 9.05687C81.4538 8.75829 81.7226 8.50237 82.0809 8.50237C82.3945 8.50237 82.7081 8.71564 82.7977 9.01422L84.3208 13.8341C84.3656 14.0474 84.3656 14.2607 84.2312 14.4313C84.0968 14.6019 83.8729 14.7299 83.6489 14.7299L80.9162 14.9005H80.8714ZM82.1705 11.9573L81.8122 13.4502L82.6185 13.4076L82.1705 11.9573Z" fill="#4D3627"/>
<path d="M94.4528 13.9674C94.88 13.8043 95.4496 13.6413 96.0548 13.6413C97.0159 13.6413 97.9059 14.0082 97.9059 15.1087C97.9059 16.3723 96.6243 16.6984 95.5564 16.6984C95.1292 16.6984 94.7732 16.6576 94.524 16.5761L94.4528 13.9674ZM94.3104 7.93478C94.6308 7.8125 94.9512 7.73098 95.3428 7.73098C96.0548 7.73098 96.7312 8.05707 96.7312 8.87228C96.7312 9.8913 95.4496 10.5435 94.7376 10.5435C94.5952 10.5435 94.4884 10.5435 94.3816 10.5027L94.3104 7.93478ZM91.3201 19.5924C92.1389 19.837 93.7053 20 94.7732 20C98.1551 20 102 18.6141 102 15.0272C102 13.1929 100.184 12.0516 98.1551 11.6848C99.6502 10.7473 100.754 9.64674 100.754 8.30163C100.754 5.81522 98.0483 5 95.3784 5C93.9188 5 91.9965 5.24457 90.9998 5.52989L91.3201 19.5924Z" fill="white"/>
<path d="M94.6616 21C93.4487 21 91.7432 20.8725 90.8336 20.575C90.5683 20.49 90.3788 20.235 90.3788 19.9375L89.9998 5.275C89.9998 4.935 90.1893 4.68 90.4546 4.595C91.5537 4.255 93.6382 4 95.3059 4C99.3613 4 101.673 5.53 101.673 8.165C101.673 9.3125 101.067 10.375 99.854 11.395C101.787 12.1175 103 13.52 103 15.1775C102.962 19.1725 98.7928 21 94.6616 21ZM91.5916 19.3C92.4633 19.47 93.7519 19.555 94.6616 19.555C97.2767 19.555 101.711 18.62 101.711 15.05C101.711 13.52 99.9298 12.5425 98.1484 12.245C97.8831 12.2025 97.6557 11.99 97.6178 11.6925C97.5799 11.395 97.6936 11.0975 97.921 10.97C99.5508 9.9925 100.385 9.015 100.385 8.08C100.385 5.53 96.4808 5.3175 95.268 5.3175C93.9415 5.3175 92.3117 5.4875 91.2505 5.7425L91.5916 19.3ZM95.4954 17.6425C95.1164 17.6425 94.6995 17.6 94.2826 17.515C93.9794 17.4725 93.7898 17.175 93.7898 16.835L93.7519 14.0725C93.7519 13.775 93.9035 13.52 94.1688 13.3925C94.7374 13.1375 95.4196 13.01 96.0639 13.01C97.6936 13.01 98.6412 13.86 98.6412 15.2625C98.6033 16.75 97.4662 17.6425 95.4954 17.6425ZM95.0027 16.1975C95.1543 16.1975 95.3438 16.24 95.4954 16.24C96.0639 16.24 97.3525 16.155 97.3525 15.2625C97.3525 15.05 97.3525 14.455 96.026 14.455C95.6849 14.455 95.3059 14.4975 94.9648 14.5825L95.0027 16.1975ZM94.6237 11.14C94.4342 11.14 94.3205 11.0975 94.2068 11.0975H94.1688C93.8656 11.055 93.6382 10.7575 93.6382 10.4175L93.5624 7.74C93.5624 7.4425 93.714 7.1875 93.9793 7.06C94.3963 6.89 94.8511 6.805 95.3059 6.805C96.5945 6.805 97.3904 7.57 97.3904 8.7175C97.3525 10.29 95.5712 11.14 94.6237 11.14ZM94.8132 8.25L94.8511 9.695C95.3817 9.5675 96.1018 9.1425 96.1018 8.675C96.1018 8.2075 95.4954 8.165 95.268 8.165C95.1164 8.2075 94.9648 8.2075 94.8132 8.25Z" fill="#4D3627"/>
<path d="M113.466 20L113.381 13.7355L118 5.60847L113.974 4.12698L111.051 9.84127L107.152 4L103 6.83598L108.339 13.7778L108.169 19.9153L113.466 20Z" fill="white"/>
<path d="M112.917 21L107.714 20.9124C107.549 20.9124 107.342 20.8248 107.218 20.6934C107.094 20.562 107.012 20.3431 107.012 20.1679L107.218 14.0803L102.139 7.11679C102.015 6.94161 101.974 6.76642 102.015 6.54745C102.057 6.37226 102.139 6.15328 102.304 6.06569L106.351 3.13139C106.516 3.0438 106.681 3 106.847 3C107.012 3.0438 107.177 3.13139 107.301 3.30657L110.481 8.34307L112.793 3.52555C112.958 3.21898 113.33 3.0438 113.619 3.17518L117.542 4.70803C117.748 4.79562 117.872 4.92701 117.955 5.14599C118.037 5.36496 117.996 5.58394 117.913 5.75912L113.495 14.0365L113.578 20.2993C113.578 20.4745 113.495 20.6934 113.371 20.8248C113.247 20.9124 113.082 21 112.917 21ZM108.457 19.4672L112.215 19.5547L112.132 13.8175C112.132 13.6861 112.174 13.5547 112.215 13.4672L116.344 5.75912L113.743 4.75182L111.183 10.0949C111.059 10.3139 110.852 10.4891 110.604 10.4891C110.357 10.4891 110.15 10.4015 109.985 10.1825L106.558 4.75182L103.667 6.81022L108.457 13.3796C108.54 13.5109 108.622 13.6861 108.581 13.8613L108.457 19.4672Z" fill="#4D3627"/>
<path d="M28.453 28C28.5034 28.1911 28.6041 28.2675 28.7048 28.3439C28.8055 28.4204 29.007 28.4204 29.4098 28.4204C30.3163 28.4204 32.6832 28.3057 33.4386 28.2675C33.64 28.2675 33.7408 28.2293 33.8415 28.1529C33.9422 28.0764 34.0429 28 34.1436 28C34.3451 28 34.9998 28.3822 34.9998 28.4968C34.9998 28.6115 34.8487 28.6497 34.6976 28.7643C34.5465 28.8408 34.5465 28.9936 34.5465 29.2229C34.4962 29.8726 34.2947 32.5478 34.2947 33.3121C34.2947 33.6943 34.194 34 33.9422 34C33.7408 34 33.64 33.6943 33.5897 33.465C33.4386 33.465 33.2875 33.4268 32.935 33.4268C32.1293 33.4268 29.9134 33.5032 29.4602 33.6561C29.2587 33.7325 29.158 33.8089 29.007 33.8089C28.5034 33.8089 27.9998 33.465 27.9998 33.1975C27.9998 33.0446 28.1005 32.8535 28.2012 32.8535C28.2516 33.2357 28.8559 33.2357 29.2587 33.2357C29.7623 33.2357 32.1293 33.1592 32.6832 33.121C32.9854 33.0828 33.1868 33.0446 33.3882 33.0446C33.4386 33.0446 33.5897 33.0446 33.6904 33.0828C33.7408 32.6624 33.7911 31.7834 33.8415 30.9809C33.7911 30.9809 33.4386 30.9809 33.3882 30.9809C33.2372 30.9809 30.5681 31.0191 29.9134 31.2102C29.7623 31.2484 29.7623 31.2866 29.6616 31.2866C29.3091 31.2866 28.7552 30.9045 28.7552 30.7134C28.7552 30.5987 28.7552 30.5223 28.8559 30.4076H28.9062C29.0573 30.7516 29.4602 30.7898 29.9638 30.7898C30.4674 30.7898 32.2803 30.7134 32.7839 30.6369C33.1364 30.5987 33.2372 30.5605 33.3882 30.5605C33.5897 30.5605 33.7408 30.5605 33.8918 30.5987C33.9422 30.0255 33.9422 29.2611 33.9422 28.7643C33.9422 28.6115 33.9422 28.6115 33.7911 28.6115C33.3379 28.6115 31.0717 28.7261 30.1149 28.8408C29.9134 28.8408 29.712 28.879 29.5609 28.9172C29.4098 28.9554 29.3091 29.0318 29.158 29.0318C28.9062 29.0318 28.3019 28.6879 28.3019 28.3822C28.3019 28.2293 28.3523 28.0764 28.453 28Z" fill="white"/>
<path d="M43.6519 30.4194C44.3856 30.4194 44.7769 30.3548 44.9237 30.3548C45.3639 30.3548 45.9998 30.4516 45.9998 30.6129C45.9998 30.7419 45.8041 30.7742 45.4617 30.7742C45.2661 30.7742 45.0704 30.7742 44.8748 30.7742C44.4345 30.7742 43.6519 30.7742 43.065 30.7742C40.7661 30.7742 38.9074 30.7742 38.4671 30.9032C38.3204 30.9355 38.2226 31 38.0269 31C37.6845 31 36.9998 30.6129 36.9998 30.3226C36.9998 30.1613 37.0487 30.0645 37.1954 30H37.2443C37.3421 30.2903 37.6356 30.4194 38.8095 30.4194H43.6519Z" fill="white"/>
<path d="M47.3243 28.0458C47.5097 28.4122 47.9269 28.6412 48.4368 28.6412C49.0859 28.6412 51.2183 28.5496 52.5163 28.458C52.9799 28.4122 52.9799 28.1832 53.2117 28.1832C53.3971 28.1832 53.9998 28.6412 53.9998 28.7786C53.9998 28.916 53.8607 28.9618 53.7216 29.0076C53.5825 29.0534 53.5825 29.2366 53.5362 29.5114C53.4435 30.5649 53.3044 32.2595 53.1653 32.9466C53.4898 33.084 53.768 33.2214 53.768 33.4962C53.768 33.6336 53.5362 33.6336 53.3971 33.6336C53.119 33.6336 52.9799 33.4962 52.47 33.4962C52.3309 33.4962 52.2382 33.4962 52.0991 33.4962C50.7547 33.4962 48.6686 33.7252 48.2514 33.8626C48.1587 33.9084 48.066 34 47.8806 34C47.4633 34 46.9998 33.4504 46.9998 33.084C46.9998 32.9008 47.0925 32.7634 47.1852 32.626H47.2779C47.417 33.084 47.6951 33.2672 48.2514 33.2672C48.4832 33.2672 51.6819 33.084 52.3309 33.0382C52.47 33.0382 52.5627 32.9924 52.6554 32.9466C52.7945 31.8473 52.8872 30.1069 52.9335 28.9618C52.9335 28.8702 52.8872 28.8244 52.7481 28.8244C52.7018 28.8244 48.9931 29.0076 48.3905 29.2366C48.3441 29.2824 48.2051 29.3282 48.1123 29.3282C47.7878 29.3282 47.2315 28.7328 47.2315 28.4122C47.2315 28.229 47.2779 28.0916 47.3706 28H47.3243V28.0458Z" fill="white"/>
<path d="M55.1923 29.9404C55.1923 30.1391 55.3367 30.3377 55.5292 30.3377C55.6254 30.3377 55.9623 30.1391 56.1548 29.9801C56.588 29.6225 57.1655 29.1854 57.5987 28.8676C57.9837 28.5894 58.3206 28.4305 58.7538 28.4305C59.3313 28.4305 59.7645 28.7086 60.6308 29.3841C61.4971 30.0596 63.3741 31.6093 63.8554 32.2848C63.9035 32.404 63.9998 32.5629 63.9998 32.6821C63.9998 32.8411 63.8554 33 63.6147 33C63.4222 33 63.2297 32.6424 62.8447 32.2053C62.219 31.4901 61.1121 30.3377 60.2939 29.702C59.6682 29.1854 59.1869 28.8278 58.7538 28.8278C58.465 28.8278 58.1281 28.9868 57.7912 29.3046C57.4062 29.6225 56.8286 30.1391 56.3473 30.6556C56.1067 30.9338 56.0586 31.1722 55.8179 31.1722C55.3848 31.1722 54.9998 30.5762 54.9998 30.3377C54.9998 30.1788 55.096 30.0596 55.1923 29.9404ZM60.8233 27.6755C62.1227 28.0728 62.3153 28.5099 62.3153 28.7483C62.3153 28.8676 62.1709 28.9868 62.0746 28.9868C61.8821 28.9868 61.834 28.9073 61.7377 28.7881C61.5933 28.5099 61.2083 28.1126 60.6789 27.8742L60.8233 27.6755ZM61.9302 27C63.3741 27.4371 63.4222 27.9536 63.4222 28.0331C63.4222 28.1523 63.326 28.3113 63.1816 28.3113C62.9891 28.3113 62.9409 28.2318 62.8447 28.0728C62.7003 27.7947 62.3153 27.3974 61.7859 27.1589L61.9302 27Z" fill="white"/>
<path d="M72.4908 27.1798C72.5746 27.0899 72.7004 27 72.9099 27C73.371 27 73.9998 27.4045 73.9998 27.764C73.9998 27.8989 73.9159 27.8989 73.7902 27.9438C73.6644 27.9888 73.5806 28.0337 73.4968 28.1236C72.9099 28.7528 71.862 29.6067 71.3171 30.0562C71.4848 30.1461 71.6525 30.3708 71.6525 30.5056C71.6525 30.6404 71.6105 30.6854 71.6105 30.8202C71.5686 31.0449 71.5686 31.6292 71.5686 32.0337C71.5686 32.618 71.5686 33.2921 71.5686 33.6067C71.5686 33.9663 71.6105 34.236 71.6105 34.4157C71.6105 34.8652 71.4848 35 71.2752 35C71.1075 35 70.9399 34.5955 70.856 34.1011C70.9818 33.8764 71.0237 33.6966 71.0237 33.382C71.0656 33.0225 71.0656 32.2135 71.0656 31.5393C71.0656 30.9101 71.0656 30.4607 70.9399 30.3258C70.1435 30.9101 68.8021 31.809 67.0836 32.573L66.9998 32.3933C70.5626 30.4607 73.0357 28.0337 73.0357 27.6292C72.9938 27.4045 72.7423 27.2247 72.4908 27.1798Z" fill="white"/>
<path d="M81.9228 29.0349C81.9741 28.9535 82.128 28.9128 82.2818 28.9128C82.7433 28.9128 83.3075 29.3605 83.3075 29.564C83.3075 29.7267 83.1023 29.6454 82.7433 29.7674C81.41 30.3779 79.769 30.9477 78.2818 31.2733C78.2305 33.3895 78.5382 33.5523 80.3331 33.5523C80.8459 33.5523 82.9485 33.5523 83.3075 33.2674C83.769 33.3081 84.2818 33.3895 84.2818 33.6337C84.2818 33.8372 83.6151 33.9186 83.2562 33.9186C82.3844 33.9593 81.3075 34 80.5382 34C78.3844 34 77.7177 33.7965 77.7177 31.5581C77.7177 31.1512 77.7177 30.6221 77.7177 30.1744C77.7177 29.6454 77.769 29.1977 77.769 28.8721C77.769 28.4651 77.7177 28.1802 76.9998 28.1802C76.9998 28.0174 77.3587 27.8953 77.6151 27.8953C78.0254 27.8953 78.6921 28.0988 78.6921 28.4244C78.6921 28.5465 78.6408 28.5465 78.5895 28.6279C78.4356 28.8314 78.3844 30.6628 78.3331 31.0291C80.6921 30.3779 82.2818 29.564 82.2818 29.2791C82.2818 29.157 82.128 29.0349 81.9228 29.0349ZM82.0767 27.2849C82.8459 27.5291 83.5639 28.0174 83.5639 28.4244C83.5639 28.6279 83.41 28.7093 83.2562 28.7093C83.1023 28.7093 83.051 28.6686 82.9485 28.4651C82.8459 28.1802 82.4869 27.7326 81.9228 27.407L82.0767 27.2849ZM83.5126 27C84.3331 27.2849 84.9998 27.814 84.9998 28.1802C84.9998 28.3837 84.8459 28.4651 84.6921 28.4651C84.5382 28.4651 84.4869 28.4244 84.3844 28.2209C84.2818 27.936 83.9228 27.4477 83.3587 27.1628L83.5126 27Z" fill="white"/>
<path d="M91.9128 30.4194C92.565 30.4194 92.9128 30.3548 93.0432 30.3548C93.4345 30.3548 93.9998 30.4516 93.9998 30.6129C93.9998 30.7419 93.8259 30.7742 93.5215 30.7742C93.3476 30.7742 93.1737 30.7742 92.9998 30.7742C92.6085 30.7742 91.9128 30.7742 91.3911 30.7742C89.3476 30.7742 87.6954 30.7742 87.3041 30.9032C87.1737 30.9355 87.0867 31 86.9128 31C86.6085 31 85.9998 30.6129 85.9998 30.3226C85.9998 30.1613 86.0432 30.0645 86.1737 30H86.2171C86.3041 30.2903 86.565 30.4194 87.6085 30.4194H91.9128Z" fill="white"/>
</svg>
